<?xml version="1.0" encoding="UTF-8"?>
<!--Generator: Apple Native CoreSVG 149-->
<!DOCTYPE svg
PUBLIC "-//W3C//DTD SVG 1.1//EN"
       "http://www.w3.org/Graphics/SVG/1.1/DTD/svg11.dtd">
<svg version="1.1" xmlns="http://www.w3.org/2000/svg" xmlns:xlink="http://www.w3.org/1999/xlink" width="3300" height="2200">
 <!--glyph: "uni100188.medium", point size: 100.000000, font version: "Version 16.0d12e3", template writer version: "8"-->
 <g id="Notes">
  <rect height="2200" id="artboard" style="fill:white;opacity:1" width="3300" x="0" y="0"/>
  <line id="" style="fill:none;stroke:black;opacity:1;stroke-width:0.5;" x1="263" x2="3036" y1="292" y2="292"/>
  <text style="stroke:none;fill:black;font-family:-apple-system,&quot;SF Pro Display&quot;,&quot;SF Pro Text&quot;,Helvetica,sans-serif;font-weight:bold;" transform="matrix(1 0 0 1 263 322)">Weight/Scale Variations</text>
  <text style="stroke:none;fill:black;font-family:-apple-system,&quot;SF Pro Display&quot;,&quot;SF Pro Text&quot;,Helvetica,sans-serif;text-anchor:middle;" transform="matrix(1 0 0 1 559.711 322)">Ultralight</text>
  <text style="stroke:none;fill:black;font-family:-apple-system,&quot;SF Pro Display&quot;,&quot;SF Pro Text&quot;,Helvetica,sans-serif;text-anchor:middle;" transform="matrix(1 0 0 1 856.422 322)">Thin</text>
  <text style="stroke:none;fill:black;font-family:-apple-system,&quot;SF Pro Display&quot;,&quot;SF Pro Text&quot;,Helvetica,sans-serif;text-anchor:middle;" transform="matrix(1 0 0 1 1153.13 322)">Light</text>
  <text style="stroke:none;fill:black;font-family:-apple-system,&quot;SF Pro Display&quot;,&quot;SF Pro Text&quot;,Helvetica,sans-serif;text-anchor:middle;" transform="matrix(1 0 0 1 1449.84 322)">Regular</text>
  <text style="stroke:none;fill:black;font-family:-apple-system,&quot;SF Pro Display&quot;,&quot;SF Pro Text&quot;,Helvetica,sans-serif;text-anchor:middle;" transform="matrix(1 0 0 1 1746.56 322)">Medium</text>
  <text style="stroke:none;fill:black;font-family:-apple-system,&quot;SF Pro Display&quot;,&quot;SF Pro Text&quot;,Helvetica,sans-serif;text-anchor:middle;" transform="matrix(1 0 0 1 2043.27 322)">Semibold</text>
  <text style="stroke:none;fill:black;font-family:-apple-system,&quot;SF Pro Display&quot;,&quot;SF Pro Text&quot;,Helvetica,sans-serif;text-anchor:middle;" transform="matrix(1 0 0 1 2339.98 322)">Bold</text>
  <text style="stroke:none;fill:black;font-family:-apple-system,&quot;SF Pro Display&quot;,&quot;SF Pro Text&quot;,Helvetica,sans-serif;text-anchor:middle;" transform="matrix(1 0 0 1 2636.69 322)">Heavy</text>
  <text style="stroke:none;fill:black;font-family:-apple-system,&quot;SF Pro Display&quot;,&quot;SF Pro Text&quot;,Helvetica,sans-serif;text-anchor:middle;" transform="matrix(1 0 0 1 2933.4 322)">Black</text>
  <line id="" style="fill:none;stroke:black;opacity:1;stroke-width:0.5;" x1="263" x2="3036" y1="1903" y2="1903"/>
  <g id="" transform="matrix(1 0 0 1 263 1933)">
   <path d="M9.24805 0.830078C13.5547 0.830078 17.1387-2.74414 17.1387-7.05078C17.1387-11.3574 13.5449-14.9316 9.23828-14.9316C4.94141-14.9316 1.36719-11.3574 1.36719-7.05078C1.36719-2.74414 4.95117 0.830078 9.24805 0.830078ZM9.24805-0.654297C5.70312-0.654297 2.87109-3.49609 2.87109-7.05078C2.87109-10.6055 5.69336-13.4473 9.23828-13.4473C12.793-13.4473 15.6348-10.6055 15.6445-7.05078C15.6543-3.49609 12.8027-0.654297 9.24805-0.654297ZM9.22852-3.62305C9.69727-3.62305 9.9707-3.93555 9.9707-4.45312L9.9707-6.31836L12.002-6.31836C12.5-6.31836 12.832-6.57227 12.832-7.04102C12.832-7.51953 12.5195-7.7832 12.002-7.7832L9.9707-7.7832L9.9707-9.81445C9.9707-10.332 9.69727-10.6543 9.22852-10.6543C8.75977-10.6543 8.50586-10.3125 8.50586-9.81445L8.50586-7.7832L6.49414-7.7832C5.97656-7.7832 5.64453-7.51953 5.64453-7.04102C5.64453-6.57227 5.99609-6.31836 6.49414-6.31836L8.50586-6.31836L8.50586-4.45312C8.50586-3.95508 8.75977-3.62305 9.22852-3.62305Z"/>
  </g>
  <g id="" transform="matrix(1 0 0 1 281.506 1933)">
   <path d="M11.709 2.91016C17.1582 2.91016 21.6699-1.61133 21.6699-7.05078C21.6699-12.5 17.1484-17.0117 11.6992-17.0117C6.25977-17.0117 1.74805-12.5 1.74805-7.05078C1.74805-1.61133 6.26953 2.91016 11.709 2.91016ZM11.709 1.25C7.09961 1.25 3.41797-2.44141 3.41797-7.05078C3.41797-11.6602 7.08984-15.3516 11.6992-15.3516C16.3086-15.3516 20-11.6602 20.0098-7.05078C20.0195-2.44141 16.3184 1.25 11.709 1.25ZM11.6797-2.66602C12.207-2.66602 12.5098-3.01758 12.5098-3.59375L12.5098-6.23047L15.3223-6.23047C15.8691-6.23047 16.25-6.51367 16.25-7.03125C16.25-7.55859 15.8887-7.86133 15.3223-7.86133L12.5098-7.86133L12.5098-10.6836C12.5098-11.25 12.207-11.6113 11.6797-11.6113C11.1621-11.6113 10.8789-11.2305 10.8789-10.6836L10.8789-7.86133L8.07617-7.86133C7.50977-7.86133 7.13867-7.55859 7.13867-7.03125C7.13867-6.51367 7.5293-6.23047 8.07617-6.23047L10.8789-6.23047L10.8789-3.59375C10.8789-3.03711 11.1621-2.66602 11.6797-2.66602Z"/>
  </g>
  <g id="" transform="matrix(1 0 0 1 304.924 1933)">
   <path d="M14.9707 5.66406C21.9336 5.66406 27.6953-0.0976562 27.6953-7.05078C27.6953-14.0137 21.9238-19.7754 14.9609-19.7754C8.00781-19.7754 2.25586-14.0137 2.25586-7.05078C2.25586-0.0976562 8.01758 5.66406 14.9707 5.66406ZM14.9707 3.84766C8.93555 3.84766 4.08203-1.01562 4.08203-7.05078C4.08203-13.0957 8.92578-17.9492 14.9609-17.9492C21.0059-17.9492 25.8594-13.0957 25.8691-7.05078C25.8789-1.01562 21.0156 3.84766 14.9707 3.84766ZM14.9414-1.38672C15.5176-1.38672 15.8594-1.77734 15.8594-2.38281L15.8594-6.13281L19.7754-6.13281C20.3711-6.13281 20.7812-6.46484 20.7812-7.02148C20.7812-7.59766 20.3906-7.93945 19.7754-7.93945L15.8594-7.93945L15.8594-11.8652C15.8594-12.4805 15.5176-12.8711 14.9414-12.8711C14.375-12.8711 14.0527-12.4609 14.0527-11.8652L14.0527-7.93945L10.1465-7.93945C9.53125-7.93945 9.13086-7.59766 9.13086-7.02148C9.13086-6.46484 9.55078-6.13281 10.1465-6.13281L14.0527-6.13281L14.0527-2.38281C14.0527-1.79688 14.375-1.38672 14.9414-1.38672Z"/>
  </g>
  <text style="stroke:none;fill:black;font-family:-apple-system,&quot;SF Pro Display&quot;,&quot;SF Pro Text&quot;,Helvetica,sans-serif;font-weight:bold;" transform="matrix(1 0 0 1 263 1953)">Design Variations</text>
  <text style="stroke:none;fill:black;font-family:-apple-system,&quot;SF Pro Display&quot;,&quot;SF Pro Text&quot;,Helvetica,sans-serif;" transform="matrix(1 0 0 1 263 1971)">Symbols are supported in up to nine weights and three scales.</text>
  <text style="stroke:none;fill:black;font-family:-apple-system,&quot;SF Pro Display&quot;,&quot;SF Pro Text&quot;,Helvetica,sans-serif;" transform="matrix(1 0 0 1 263 1989)">For optimal layout with text and other symbols, vertically align</text>
  <text style="stroke:none;fill:black;font-family:-apple-system,&quot;SF Pro Display&quot;,&quot;SF Pro Text&quot;,Helvetica,sans-serif;" transform="matrix(1 0 0 1 263 2007)">symbols with the adjacent text.</text>
  <line id="" style="fill:none;stroke:#00AEEF;stroke-width:0.5;opacity:1.0;" x1="776" x2="776" y1="1919" y2="1933"/>
  <g id="" transform="matrix(1 0 0 1 776 1933)">
   <path d="M3.31055 0.126953C3.82812 0.126953 4.08203-0.0683594 4.26758-0.605469L5.52734-4.0625L11.2891-4.0625L12.5488-0.605469C12.7344-0.0683594 12.9883 0.126953 13.4961 0.126953C14.0137 0.126953 14.3457-0.185547 14.3457-0.673828C14.3457-0.839844 14.3164-0.986328 14.2383-1.20117L9.6582-13.3887C9.43359-13.9941 9.0332-14.2871 8.4082-14.2871C7.80273-14.2871 7.39258-13.9941 7.17773-13.3984L2.59766-1.19141C2.51953-0.976562 2.49023-0.830078 2.49023-0.664062C2.49023-0.175781 2.80273 0.126953 3.31055 0.126953ZM6.00586-5.53711L8.37891-12.1094L8.42773-12.1094L10.8008-5.53711Z"/>
  </g>
  <line id="" style="fill:none;stroke:#00AEEF;stroke-width:0.5;opacity:1.0;" x1="792.836" x2="792.836" y1="1919" y2="1933"/>
  <text style="stroke:none;fill:black;font-family:-apple-system,&quot;SF Pro Display&quot;,&quot;SF Pro Text&quot;,Helvetica,sans-serif;font-weight:bold;" transform="matrix(1 0 0 1 776 1953)">Margins</text>
  <text style="stroke:none;fill:black;font-family:-apple-system,&quot;SF Pro Display&quot;,&quot;SF Pro Text&quot;,Helvetica,sans-serif;" transform="matrix(1 0 0 1 776 1971)">Leading and trailing margins on the left and right side of each symbol</text>
  <text style="stroke:none;fill:black;font-family:-apple-system,&quot;SF Pro Display&quot;,&quot;SF Pro Text&quot;,Helvetica,sans-serif;" transform="matrix(1 0 0 1 776 1989)">can be adjusted by modifying the x-location of the margin guidelines.</text>
  <text style="stroke:none;fill:black;font-family:-apple-system,&quot;SF Pro Display&quot;,&quot;SF Pro Text&quot;,Helvetica,sans-serif;" transform="matrix(1 0 0 1 776 2007)">Modifications are automatically applied proportionally to all</text>
  <text style="stroke:none;fill:black;font-family:-apple-system,&quot;SF Pro Display&quot;,&quot;SF Pro Text&quot;,Helvetica,sans-serif;" transform="matrix(1 0 0 1 776 2025)">scales and weights.</text>
  <g id="" transform="matrix(1 0 0 1 1289 1933)">
   <path d="M2.8418 1.86523L4.54102 3.57422C5.40039 4.44336 6.38672 4.38477 7.31445 3.35938L17.4902-7.85156C17.7539-7.76367 18.0273-7.7832 18.3398-7.8418L19.4043-8.03711L20.0684-7.36328L20.0293-6.80664C19.9902-6.30859 20.1172-5.92773 20.6055-5.44922L21.3672-4.70703C21.8457-4.22852 22.4609-4.19922 22.9297-4.66797L25.8398-7.58789C26.3086-8.05664 26.2891-8.65234 25.8105-9.13086L25.0391-9.89258C24.5605-10.3711 24.1895-10.5273 23.7109-10.4883L23.1348-10.4395L22.4902-11.0742L22.7344-12.1973C22.8613-12.7637 22.7051-13.2031 22.1191-13.7891L19.9219-15.9766C16.582-19.2969 12.1484-19.2188 9.25781-16.3281C8.83789-15.918 8.80859-15.3418 9.04297-14.9512C9.27734-14.5898 9.73633-14.3555 10.3809-14.5215C11.8457-14.8633 13.3691-14.9219 14.7949-13.9844L14.209-12.5293C14.0137-12.0508 13.9844-11.6504 14.1113-11.2891L3.04688-0.898438C2.06055 0.0195312 1.98242 0.996094 2.8418 1.86523ZM10.752-15.957C13.1836-17.7344 16.4746-17.4316 18.7012-15.2051L21.1328-12.793C21.3672-12.5586 21.4062-12.373 21.3379-12.0312L21.0156-10.5469L22.5195-9.0625L23.5059-9.12109C23.7598-9.13086 23.8379-9.11133 24.0332-8.91602L24.6094-8.33984L22.168-5.89844L21.5918-6.47461C21.3965-6.66992 21.3672-6.74805 21.377-7.01172L21.4453-7.98828L19.9512-9.47266L18.4277-9.21875C18.1055-9.15039 17.959-9.17969 17.7148-9.41406L15.7129-11.416C15.459-11.6504 15.4297-11.8164 15.5859-12.1875L16.4648-14.2773C14.9023-15.7324 12.8711-16.3574 10.8398-15.7617C10.6836-15.7227 10.625-15.8496 10.752-15.957ZM5.27344 2.30469L4.10156 1.14258C3.63281 0.683594 3.74023 0.341797 4.14062-0.0195312L14.9512-10.1953L16.416-8.71094L6.42578 2.27539C6.07422 2.67578 5.74219 2.77344 5.27344 2.30469Z"/>
  </g>
  <text style="stroke:none;fill:black;font-family:-apple-system,&quot;SF Pro Display&quot;,&quot;SF Pro Text&quot;,Helvetica,sans-serif;font-weight:bold;" transform="matrix(1 0 0 1 1289 1953)">Exporting</text>
  <text style="stroke:none;fill:black;font-family:-apple-system,&quot;SF Pro Display&quot;,&quot;SF Pro Text&quot;,Helvetica,sans-serif;" transform="matrix(1 0 0 1 1289 1971)">Symbols should be outlined when exporting to ensure the</text>
  <text style="stroke:none;fill:black;font-family:-apple-system,&quot;SF Pro Display&quot;,&quot;SF Pro Text&quot;,Helvetica,sans-serif;" transform="matrix(1 0 0 1 1289 1989)">design is preserved when submitting to Xcode.</text>
  <text id="template-version" style="stroke:none;fill:black;font-family:-apple-system,&quot;SF Pro Display&quot;,&quot;SF Pro Text&quot;,Helvetica,sans-serif;text-anchor:end;" transform="matrix(1 0 0 1 3036 1933)">Template v.2.0</text>
  <text style="stroke:none;fill:black;font-family:-apple-system,&quot;SF Pro Display&quot;,&quot;SF Pro Text&quot;,Helvetica,sans-serif;text-anchor:end;" transform="matrix(1 0 0 1 3036 1951)">Requires Xcode 12 or greater</text>
  <text style="stroke:none;fill:black;font-family:-apple-system,&quot;SF Pro Display&quot;,&quot;SF Pro Text&quot;,Helvetica,sans-serif;text-anchor:end;" transform="matrix(1 0 0 1 3036 1969)">Generated from chevron.down</text>
  <text style="stroke:none;fill:black;font-family:-apple-system,&quot;SF Pro Display&quot;,&quot;SF Pro Text&quot;,Helvetica,sans-serif;text-anchor:end;" transform="matrix(1 0 0 1 3036 1987)">Typeset at 100 points</text>
  <text style="stroke:none;fill:black;font-family:-apple-system,&quot;SF Pro Display&quot;,&quot;SF Pro Text&quot;,Helvetica,sans-serif;" transform="matrix(1 0 0 1 263 726)">Small</text>
  <text style="stroke:none;fill:black;font-family:-apple-system,&quot;SF Pro Display&quot;,&quot;SF Pro Text&quot;,Helvetica,sans-serif;" transform="matrix(1 0 0 1 263 1156)">Medium</text>
  <text style="stroke:none;fill:black;font-family:-apple-system,&quot;SF Pro Display&quot;,&quot;SF Pro Text&quot;,Helvetica,sans-serif;" transform="matrix(1 0 0 1 263 1586)">Large</text>
 </g>
 <g id="Guides">
  <g id="H-reference" style="fill:#27AAE1;stroke:none;" transform="matrix(1 0 0 1 339 696)">
   <path d="M0.976562 0L3.66211 0L12.9883-24.4629L45.752-24.4629L55.127 0L57.7637 0L30.6152-70.459L28.125-70.459ZM29.3457-67.1387L29.4434-67.1387L44.873-26.709L13.8672-26.709Z"/>
  </g>
  <line id="Baseline-S" style="fill:none;stroke:#27AAE1;opacity:1;stroke-width:0.5;" x1="263" x2="3036" y1="696" y2="696"/>
  <line id="Capline-S" style="fill:none;stroke:#27AAE1;opacity:1;stroke-width:0.5;" x1="263" x2="3036" y1="625.541" y2="625.541"/>
  <g id="H-reference" style="fill:#27AAE1;stroke:none;" transform="matrix(1 0 0 1 339 1126)">
   <path d="M0.976562 0L3.66211 0L12.9883-24.4629L45.752-24.4629L55.127 0L57.7637 0L30.6152-70.459L28.125-70.459ZM29.3457-67.1387L29.4434-67.1387L44.873-26.709L13.8672-26.709Z"/>
  </g>
  <line id="Baseline-M" style="fill:none;stroke:#27AAE1;opacity:1;stroke-width:0.5;" x1="263" x2="3036" y1="1126" y2="1126"/>
  <line id="Capline-M" style="fill:none;stroke:#27AAE1;opacity:1;stroke-width:0.5;" x1="263" x2="3036" y1="1055.54" y2="1055.54"/>
  <g id="H-reference" style="fill:#27AAE1;stroke:none;" transform="matrix(1 0 0 1 339 1556)">
   <path d="M0.976562 0L3.66211 0L12.9883-24.4629L45.752-24.4629L55.127 0L57.7637 0L30.6152-70.459L28.125-70.459ZM29.3457-67.1387L29.4434-67.1387L44.873-26.709L13.8672-26.709Z"/>
  </g>
  <line id="Baseline-L" style="fill:none;stroke:#27AAE1;opacity:1;stroke-width:0.5;" x1="263" x2="3036" y1="1556" y2="1556"/>
  <line id="Capline-L" style="fill:none;stroke:#27AAE1;opacity:1;stroke-width:0.5;" x1="263" x2="3036" y1="1485.54" y2="1485.54"/>
  <line id="left-margin" style="fill:none;stroke:#00AEEF;stroke-width:0.5;opacity:1.0;" x1="1394.99" x2="1394.99" y1="1030.79" y2="1150.12"/>
  <line id="right-margin" style="fill:none;stroke:#00AEEF;stroke-width:0.5;opacity:1.0;" x1="1504.7" x2="1504.7" y1="1030.79" y2="1150.12"/>
 </g>
 <g id="Symbols">
  <g id="Black-L" transform="matrix(1 0 0 1 2857.5 1556)">
   <path d="M75.9277 2.83203C80.0781 2.7832 83.3008 1.31836 86.6699-2.05078L132.129-48.3398C134.619-50.7812 135.742-53.6621 135.742-57.1289C135.742-64.2578 129.932-70.0684 122.998-70.0684C119.482-70.0684 116.211-68.6523 113.525-65.8691L76.0254-27.0996L38.3301-65.8691C35.6445-68.5547 32.373-70.0684 28.8086-70.0684C21.8262-70.0684 16.0645-64.2578 16.0645-57.1289C16.0645-53.7109 17.2363-50.8301 19.6289-48.3398L65.1855-2.05078C68.6035 1.36719 71.875 2.83203 75.9277 2.83203Z"/>
  </g>
  <g id="Heavy-L" transform="matrix(1 0 0 1 2562.32 1556)">
   <path d="M74.3652 1.51367C77.8809 1.46484 80.6641 0.195312 83.4473-2.63672L129.59-49.8535C131.689-51.9531 132.666-54.3945 132.666-57.373C132.666-63.4766 127.734-68.4082 121.777-68.4082C118.799-68.4082 115.967-67.1875 113.721-64.8438L74.4629-24.2188L35.0586-64.8438C32.7637-67.1387 29.9805-68.4082 26.9531-68.4082C20.9961-68.4082 16.0645-63.4766 16.0645-57.373C16.0645-54.4434 17.0898-51.9531 19.1406-49.8047L65.2832-2.63672C68.1641 0.244141 70.9473 1.51367 74.3652 1.51367Z"/>
  </g>
  <g id="Bold-L" transform="matrix(1 0 0 1 2267.32 1556)">
   <path d="M72.6562 0C75.4395-0.0488281 77.7344-1.07422 79.8828-3.27148L126.709-51.5137C128.369-53.2227 129.248-55.2246 129.248-57.666C129.248-62.5488 125.293-66.5527 120.41-66.5527C118.018-66.5527 115.723-65.5762 113.965-63.7207L72.7051-20.9473L31.3477-63.7207C29.5898-65.5273 27.3438-66.5527 24.8535-66.5527C20.0195-66.5527 16.0645-62.5488 16.0645-57.666C16.0645-55.2246 16.9434-53.2227 18.6035-51.5137L65.4297-3.27148C67.6758-1.02539 69.9219 0 72.6562 0Z"/>
  </g>
  <g id="Semibold-L" transform="matrix(1 0 0 1 1971.81 1556)">
   <path d="M71.4355-1.02539C73.7305-1.07422 75.6836-1.95312 77.4414-3.75977L124.707-52.6855C126.123-54.1016 126.855-55.7617 126.855-57.8125C126.855-61.9629 123.584-65.2344 119.482-65.2344C117.48-65.2344 115.576-64.4531 114.111-62.9395L71.4844-18.7012L28.8086-62.9395C27.3438-64.4043 25.4883-65.2344 23.4375-65.2344C19.3359-65.2344 16.0645-61.9629 16.0645-57.8125C16.0645-55.8105 16.8457-54.1016 18.2129-52.6367L65.5273-3.71094C67.334-1.9043 69.1895-1.02539 71.4355-1.02539Z"/>
  </g>
  <g id="Medium-L" transform="matrix(1 0 0 1 1676 1556)">
   <path d="M70.5566-1.80664C72.4609-1.85547 74.1699-2.63672 75.5371-4.10156L123.242-53.5645C124.414-54.7852 125.049-56.2012 125.049-57.959C125.049-61.5234 122.314-64.2578 118.75-64.2578C117.09-64.2578 115.43-63.5742 114.209-62.4023L70.6055-17.041L26.9043-62.4023C25.6836-63.5742 24.0723-64.2578 22.3633-64.2578C18.8477-64.2578 16.0645-61.5234 16.0645-57.959C16.0645-56.2012 16.748-54.7363 17.9199-53.5156L65.5762-4.05273C67.0898-2.58789 68.6523-1.80664 70.5566-1.80664Z"/>
  </g>
  <g id="Regular-L" transform="matrix(1 0 0 1 1380.46 1556)">
   <path d="M69.3848-2.83203C70.8008-2.83203 72.1191-3.4668 73.0957-4.54102L121.24-54.6875C122.168-55.6152 122.705-56.7871 122.705-58.1543C122.705-60.8887 120.605-62.9883 117.822-62.9883C116.553-62.9883 115.283-62.5 114.355-61.6211L69.3848-14.7949L24.3652-61.6211C23.4863-62.5 22.2656-62.9883 20.9473-62.9883C18.1641-62.9883 16.0645-60.8887 16.0645-58.1543C16.0645-56.7871 16.6504-55.6152 17.5293-54.6387L65.6738-4.49219C66.748-3.4668 67.9688-2.83203 69.3848-2.83203Z"/>
  </g>
  <g id="Light-L" transform="matrix(1 0 0 1 1085.65 1556)">
   <path d="M67.4316-4.49219C68.6035-4.49219 69.6777-5.07812 70.459-5.9082L117.773-56.3965C118.457-57.1289 118.896-57.9102 118.896-58.9844C118.896-61.0352 117.285-62.5977 115.234-62.5977C114.258-62.5977 113.281-62.2559 112.598-61.6211L67.4805-13.4766L22.3145-61.6211C21.6309-62.2559 20.7031-62.5977 19.7266-62.5977C17.6758-62.5977 16.0645-61.0352 16.0645-58.9844C16.0645-57.9102 16.5527-57.0801 17.2363-56.3477L64.4531-5.85938C65.332-5.0293 66.3086-4.49219 67.4316-4.49219Z"/>
  </g>
  <g id="Thin-L" transform="matrix(1 0 0 1 791.481 1556)">
   <path d="M64.8926-6.64062C65.7227-6.64062 66.4062-7.12891 66.9922-7.76367L113.135-58.6426C113.525-59.1309 113.818-59.4727 113.818-60.0586C113.818-61.1816 112.939-62.1094 111.816-62.1094C111.279-62.1094 110.693-61.9629 110.303-61.5723L64.9902-11.6699L19.5312-61.5723C19.1895-61.9629 18.6035-62.1094 18.1152-62.1094C16.9922-62.1094 16.0645-61.1816 16.0645-60.0586C16.0645-59.4727 16.4062-59.0332 16.7969-58.5449L62.8906-7.66602C63.5254-7.08008 64.1113-6.64062 64.8926-6.64062Z"/>
  </g>
  <g id="Ultralight-L" transform="matrix(1 0 0 1 496.064 1556)">
   <path d="M63.623-7.71484C64.2578-7.71484 64.6973-8.20312 65.2344-8.69141L110.791-59.8145C111.035-60.1074 111.23-60.2539 111.23-60.6445C111.23-61.2793 110.693-61.8652 110.01-61.8652C109.717-61.8652 109.326-61.8164 109.082-61.5723L63.6719-10.6934L18.1152-61.5723C17.9688-61.8164 17.5781-61.8652 17.2852-61.8652C16.6016-61.8652 16.0645-61.2793 16.0645-60.6445C16.0645-60.2539 16.3574-60.0586 16.6016-59.7168L62.0605-8.59375C62.5977-8.10547 62.9883-7.71484 63.623-7.71484Z"/>
  </g>
  <g id="Black-M" transform="matrix(1 0 0 1 2873.54 1126)">
   <path d="M59.9121-4.78516C63.8184-4.83398 66.7969-6.20117 70.0684-9.47266L104.004-44.2871C106.299-46.5332 107.275-49.1211 107.275-52.3438C107.275-58.8379 101.904-64.3066 95.5566-64.3066C92.334-64.3066 89.3066-62.9395 86.7676-60.3027L60.0098-32.1289L33.0566-60.3027C30.5176-62.8906 27.4902-64.3066 24.2188-64.3066C17.8223-64.3066 12.4512-58.8379 12.4512-52.3438C12.4512-49.1699 13.5254-46.6309 15.7227-44.2871L49.707-9.47266C53.0273-6.15234 56.0547-4.78516 59.9121-4.78516Z"/>
  </g>
  <g id="Heavy-M" transform="matrix(1 0 0 1 2578 1126)">
   <path d="M58.6914-5.81055C62.0117-5.85938 64.5508-7.03125 67.2852-9.7168L102.1-45.459C104.053-47.4121 104.932-49.6094 104.932-52.3926C104.932-57.959 100.391-62.5488 94.9219-62.5488C92.1387-62.5488 89.5508-61.4258 87.4512-59.2285L58.7891-29.2969L29.9805-59.2285C27.8809-61.377 25.293-62.5488 22.4609-62.5488C16.9922-62.5488 12.4512-57.959 12.4512-52.3926C12.4512-49.6582 13.3789-47.4609 15.2832-45.459L50.1465-9.7168C52.8809-6.98242 55.4688-5.81055 58.6914-5.81055Z"/>
  </g>
  <g id="Bold-M" transform="matrix(1 0 0 1 2282.6 1126)">
   <path d="M57.373-6.98242C59.9609-7.03125 62.0605-7.95898 64.1113-10.0586L100-46.8262C101.562-48.3887 102.295-50.1953 102.295-52.4414C102.295-56.9336 98.6328-60.6445 94.1895-60.6445C91.9922-60.6445 89.8926-59.7168 88.1836-58.0078L57.4219-26.123L26.5625-58.0078C24.9023-59.668 22.8027-60.6445 20.5566-60.6445C16.1133-60.6445 12.4512-56.9336 12.4512-52.4414C12.4512-50.2441 13.2324-48.3887 14.7461-46.7773L50.6348-10.0586C52.7832-7.95898 54.834-6.98242 57.373-6.98242Z"/>
  </g>
  <g id="Semibold-M" transform="matrix(1 0 0 1 1986.8 1126)">
   <path d="M56.4453-7.8125C58.5449-7.8125 60.3516-8.64258 61.9629-10.2539L98.5352-47.7539C99.8047-49.0234 100.488-50.5859 100.488-52.4414C100.488-56.25 97.4609-59.2773 93.7012-59.2773C91.8457-59.2773 90.0879-58.5449 88.7207-57.1777L56.4941-23.9746L24.2188-57.1777C22.8516-58.4961 21.1426-59.2773 19.2383-59.2773C15.4785-59.2773 12.4512-56.25 12.4512-52.4414C12.4512-50.5859 13.1348-49.0234 14.4043-47.7051L50.9766-10.2539C52.6855-8.59375 54.3945-7.8125 56.4453-7.8125Z"/>
  </g>
  <g id="Medium-M" transform="matrix(1 0 0 1 1690.79 1126)">
   <path d="M55.7617-8.39844C57.4707-8.44727 59.0332-9.08203 60.3027-10.4492L97.4121-48.4375C98.4863-49.5117 99.0723-50.8789 99.0723-52.4902C99.0723-55.7129 96.5332-58.3008 93.3105-58.3008C91.748-58.3008 90.2344-57.666 89.1113-56.543L55.8105-22.3145L22.4121-56.543C21.2891-57.6172 19.8242-58.3008 18.2129-58.3008C14.9902-58.3008 12.4512-55.7129 12.4512-52.4902C12.4512-50.8789 13.0371-49.5117 14.1113-48.4375L51.2695-10.4492C52.5879-9.08203 54.0527-8.39844 55.7617-8.39844Z"/>
  </g>
  <g id="Regular-M" transform="matrix(1 0 0 1 1394.99 1126)">
   <path d="M54.8828-9.22852C56.1035-9.22852 57.3242-9.7168 58.1543-10.6445L95.9473-49.3652C96.7773-50.1953 97.2656-51.2695 97.2656-52.4902C97.2656-55.0293 95.3613-56.9824 92.8223-56.9824C91.6016-56.9824 90.4785-56.4941 89.6484-55.7129L54.8828-20.166L20.0684-55.7129C19.2871-56.4941 18.1641-56.9824 16.8945-56.9824C14.3555-56.9824 12.4512-55.0293 12.4512-52.4902C12.4512-51.2695 12.9395-50.1953 13.7695-49.3164L51.5625-10.6445C52.4902-9.7168 53.6133-9.22852 54.8828-9.22852Z"/>
  </g>
  <g id="Light-M" transform="matrix(1 0 0 1 1099.98 1126)">
   <path d="M53.125-10.6934C54.1504-10.6934 55.0781-11.1328 55.8105-11.9141L92.8223-50.8789C93.457-51.5137 93.8477-52.2949 93.8477-53.2715C93.8477-55.1758 92.3828-56.6406 90.4785-56.6406C89.5996-56.6406 88.6719-56.2988 88.0371-55.6641L53.1738-18.9453L18.2129-55.6641C17.627-56.2988 16.748-56.6406 15.8203-56.6406C13.916-56.6406 12.4512-55.1758 12.4512-53.2715C12.4512-52.2949 12.8418-51.5137 13.4766-50.8301L50.4883-11.8652C51.2695-11.1328 52.0996-10.6934 53.125-10.6934Z"/>
  </g>
  <g id="Thin-M" transform="matrix(1 0 0 1 805.543 1126)">
   <path d="M50.8789-12.5977C51.5625-12.5977 52.1484-12.9883 52.6855-13.5254L88.6719-52.8809C89.0625-53.3203 89.3066-53.6621 89.3066-54.248C89.3066-55.3223 88.4766-56.1523 87.4023-56.1523C86.8652-56.1523 86.3281-56.0059 85.9863-55.6641L50.9277-17.334L15.7227-55.6641C15.4297-56.0059 14.8926-56.1523 14.3555-56.1523C13.2812-56.1523 12.4512-55.3223 12.4512-54.248C12.4512-53.6621 12.7441-53.2715 13.1348-52.832L49.0723-13.4766C49.6094-12.9395 50.1465-12.5977 50.8789-12.5977Z"/>
  </g>
  <g id="Ultralight-M" transform="matrix(1 0 0 1 509.98 1126)">
   <path d="M49.707-13.5742C50.2441-13.5742 50.6348-13.9648 51.0742-14.4043L86.5723-53.9062C86.8164-54.1992 87.0117-54.3945 87.0117-54.7363C87.0117-55.4199 86.4746-55.957 85.791-55.957C85.498-55.957 85.1562-55.8594 84.9121-55.6641L49.7559-16.5039L14.4531-55.6641C14.3066-55.8594 13.916-55.957 13.623-55.957C12.9883-55.957 12.4512-55.4199 12.4512-54.7363C12.4512-54.3945 12.6953-54.1504 12.9395-53.8574L48.3398-14.3066C48.7793-13.916 49.1211-13.5742 49.707-13.5742Z"/>
  </g>
  <g id="Black-S" transform="matrix(1 0 0 1 2886.55 696)">
   <path d="M46.875-11.4258C49.9023-11.4746 52.1973-12.5488 54.7363-15.0391L81.3965-42.3828C83.1543-44.1406 83.9355-46.1426 83.9355-48.6328C83.9355-53.6621 79.7852-57.8613 74.8535-57.8613C72.3633-57.8613 70.0195-56.8359 68.0664-54.7852L46.9238-32.5684L25.6836-54.7852C23.7305-56.7871 21.3867-57.8613 18.8477-57.8613C13.916-57.8613 9.76562-53.6621 9.76562-48.6328C9.76562-46.1914 10.5957-44.1895 12.3047-42.3828L39.0137-15.0391C41.5527-12.5 43.8965-11.4258 46.875-11.4258Z"/>
  </g>
  <g id="Heavy-S" transform="matrix(1 0 0 1 2590.55 696)">
   <path d="M46.1426-12.0605C48.7305-12.1094 50.7324-13.0371 52.832-15.1367L80.2734-43.1152C81.7871-44.6289 82.5195-46.4355 82.5195-48.584C82.5195-52.9785 78.9062-56.5918 74.6094-56.5918C72.4609-56.5918 70.4102-55.6641 68.75-53.9551L46.1914-30.5664L23.5352-53.9551C21.875-55.6641 19.873-56.5918 17.6758-56.5918C13.3301-56.5918 9.76562-52.9785 9.76562-48.584C9.76562-46.4355 10.498-44.6777 11.9629-43.1152L39.4531-15.1367C41.6016-12.9883 43.6035-12.0605 46.1426-12.0605Z"/>
  </g>
  <g id="Bold-S" transform="matrix(1 0 0 1 2294.64 696)">
   <path d="M45.3613-12.793C47.4121-12.793 49.0723-13.5742 50.7324-15.1855L79.0527-43.9453C80.3223-45.2148 80.9082-46.7285 80.9082-48.5352C80.9082-52.1973 77.9785-55.127 74.3652-55.127C72.5586-55.127 70.8984-54.3945 69.5312-53.0273L45.3613-28.3203L21.1914-53.0273C19.8242-54.3945 18.1641-55.127 16.3086-55.127C12.6953-55.127 9.76562-52.1973 9.76562-48.5352C9.76562-46.7285 10.4004-45.2637 11.6211-43.9453L39.9902-15.1855C41.6504-13.5254 43.3105-12.793 45.3613-12.793Z"/>
  </g>
  <g id="Semibold-S" transform="matrix(1 0 0 1 1998.47 696)">
   <path d="M44.7754-13.2812C46.4844-13.2812 47.9492-13.916 49.2676-15.2832L78.2227-44.5312C79.248-45.6055 79.834-46.9238 79.834-48.4863C79.834-51.6602 77.2949-54.1504 74.1699-54.1504C72.6562-54.1504 71.1914-53.5156 70.0684-52.3926L44.8242-26.709L19.5312-52.3926C18.4082-53.5156 16.9922-54.1504 15.3809-54.1504C12.2559-54.1504 9.76562-51.6602 9.76562-48.4863C9.76562-46.9238 10.3027-45.6055 11.377-44.5312L40.332-15.2832C41.6992-13.916 43.1152-13.2812 44.7754-13.2812Z"/>
  </g>
  <g id="Medium-S" transform="matrix(1 0 0 1 1702.2 696)">
   <path d="M44.3848-13.6719C45.8008-13.6719 47.1191-14.209 48.1445-15.332L77.5391-44.9707C78.4668-45.8984 78.9551-47.0703 78.9551-48.4375C78.9551-51.2207 76.8066-53.418 74.0234-53.418C72.7051-53.418 71.4355-52.832 70.459-51.9043L44.3848-25.5371L18.2617-51.9043C17.334-52.832 16.0645-53.418 14.6973-53.418C11.9141-53.418 9.76562-51.2207 9.76562-48.4375C9.76562-47.0703 10.2539-45.8984 11.1816-44.9707L40.5762-15.332C41.6992-14.209 42.9688-13.6719 44.3848-13.6719Z"/>
  </g>
  <g id="Regular-S" transform="matrix(1 0 0 1 1406.02 696)">
   <path d="M43.8477-14.1602C44.9219-14.1602 45.9961-14.5508 46.7285-15.3809L76.709-45.5566C77.4414-46.2891 77.8809-47.2656 77.8809-48.3887C77.8809-50.6836 76.1719-52.4414 73.877-52.4414C72.8027-52.4414 71.7285-51.9531 70.9961-51.2695L43.8477-23.9746L16.6504-51.2695C15.918-51.9531 14.9414-52.4414 13.8184-52.4414C11.5234-52.4414 9.76562-50.6836 9.76562-48.3887C9.76562-47.2656 10.2051-46.2891 10.9375-45.5566L40.9668-15.3809C41.748-14.5508 42.7246-14.1602 43.8477-14.1602Z"/>
  </g>
  <g id="Light-S" transform="matrix(1 0 0 1 1110.82 696)">
   <path d="M42.2852-15.4297C43.1641-15.4297 44.043-15.8203 44.6289-16.4551L73.9258-46.875C74.5117-47.5098 74.8535-48.1934 74.8535-49.0723C74.8535-50.7812 73.5352-52.1484 71.7773-52.1484C70.9961-52.1484 70.166-51.8066 69.5801-51.2695L42.334-22.9492L14.9902-51.2695C14.4531-51.8066 13.6719-52.1484 12.8418-52.1484C11.084-52.1484 9.76562-50.7812 9.76562-49.0723C9.76562-48.1934 10.1074-47.4609 10.6934-46.875L39.9902-16.4551C40.6738-15.8203 41.4062-15.4297 42.2852-15.4297Z"/>
  </g>
  <g id="Thin-S" transform="matrix(1 0 0 1 816.115 696)">
   <path d="M40.2832-17.1387C40.918-17.1387 41.4551-17.4805 41.8945-17.9199L70.2637-48.6816C70.6055-49.0723 70.8496-49.4141 70.8496-49.9512C70.8496-50.9277 70.0684-51.709 69.043-51.709C68.6035-51.709 68.1152-51.5625 67.7734-51.2207L40.332-21.5332L12.793-51.2207C12.5-51.5625 12.0117-51.709 11.5723-51.709C10.5469-51.709 9.76562-50.9277 9.76562-49.9512C9.76562-49.4141 10.0098-49.0234 10.3516-48.6328L38.7207-17.8711C39.209-17.4316 39.6973-17.1387 40.2832-17.1387Z"/>
  </g>
  <g id="Ultralight-S" transform="matrix(1 0 0 1 520.429 696)">
   <path d="M39.2578-18.0176C39.7461-18.0176 40.0879-18.3105 40.4785-18.6523L68.4082-49.6094C68.6035-49.8535 68.7988-50.0488 68.7988-50.3906C68.7988-51.0254 68.2617-51.5137 67.6758-51.5137C67.3828-51.5137 67.041-51.4648 66.7969-51.2207L39.3066-20.8008L11.6699-51.2207C11.5234-51.4648 11.1816-51.5137 10.8887-51.5137C10.2539-51.5137 9.76562-51.0254 9.76562-50.3906C9.76562-50.0488 9.96094-49.8047 10.2051-49.5605L38.0859-18.6523C38.4766-18.2617 38.7695-18.0176 39.2578-18.0176Z"/>
  </g>
 </g>
</svg>
