<?xml version="1.0" encoding="UTF-8"?>
<!--Generator: Apple Native CoreSVG 129-->
<!DOCTYPE svg
PUBLIC "-//W3C//DTD SVG 1.1//EN"
       "http://www.w3.org/Graphics/SVG/1.1/DTD/svg11.dtd">
<svg version="1.1" xmlns="http://www.w3.org/2000/svg" xmlns:xlink="http://www.w3.org/1999/xlink" width="3300" height="2200">
 <!--glyph: "uni1000CC.medium", point size: 100.000000, font version: "Version 16.0d9e1", template writer version: "8"-->
 <g id="Notes">
  <rect height="2200" id="artboard" style="fill:white;opacity:1" width="3300" x="0" y="0"/>
  <line id="" style="fill:none;stroke:black;opacity:1;stroke-width:0.5;" x1="263" x2="3036" y1="292" y2="292"/>
  <text style="stroke:none;fill:black;font-family:-apple-system,&quot;SF Pro Display&quot;,&quot;SF Pro Text&quot;,Helvetica,sans-serif;font-weight:bold;" transform="matrix(1 0 0 1 263 322)">Weight/Scale Variations</text>
  <text style="stroke:none;fill:black;font-family:-apple-system,&quot;SF Pro Display&quot;,&quot;SF Pro Text&quot;,Helvetica,sans-serif;text-anchor:middle;" transform="matrix(1 0 0 1 559.711 322)">Ultralight</text>
  <text style="stroke:none;fill:black;font-family:-apple-system,&quot;SF Pro Display&quot;,&quot;SF Pro Text&quot;,Helvetica,sans-serif;text-anchor:middle;" transform="matrix(1 0 0 1 856.422 322)">Thin</text>
  <text style="stroke:none;fill:black;font-family:-apple-system,&quot;SF Pro Display&quot;,&quot;SF Pro Text&quot;,Helvetica,sans-serif;text-anchor:middle;" transform="matrix(1 0 0 1 1153.13 322)">Light</text>
  <text style="stroke:none;fill:black;font-family:-apple-system,&quot;SF Pro Display&quot;,&quot;SF Pro Text&quot;,Helvetica,sans-serif;text-anchor:middle;" transform="matrix(1 0 0 1 1449.84 322)">Regular</text>
  <text style="stroke:none;fill:black;font-family:-apple-system,&quot;SF Pro Display&quot;,&quot;SF Pro Text&quot;,Helvetica,sans-serif;text-anchor:middle;" transform="matrix(1 0 0 1 1746.56 322)">Medium</text>
  <text style="stroke:none;fill:black;font-family:-apple-system,&quot;SF Pro Display&quot;,&quot;SF Pro Text&quot;,Helvetica,sans-serif;text-anchor:middle;" transform="matrix(1 0 0 1 2043.27 322)">Semibold</text>
  <text style="stroke:none;fill:black;font-family:-apple-system,&quot;SF Pro Display&quot;,&quot;SF Pro Text&quot;,Helvetica,sans-serif;text-anchor:middle;" transform="matrix(1 0 0 1 2339.98 322)">Bold</text>
  <text style="stroke:none;fill:black;font-family:-apple-system,&quot;SF Pro Display&quot;,&quot;SF Pro Text&quot;,Helvetica,sans-serif;text-anchor:middle;" transform="matrix(1 0 0 1 2636.69 322)">Heavy</text>
  <text style="stroke:none;fill:black;font-family:-apple-system,&quot;SF Pro Display&quot;,&quot;SF Pro Text&quot;,Helvetica,sans-serif;text-anchor:middle;" transform="matrix(1 0 0 1 2933.4 322)">Black</text>
  <line id="" style="fill:none;stroke:black;opacity:1;stroke-width:0.5;" x1="263" x2="3036" y1="1903" y2="1903"/>
  <g id="" transform="matrix(1 0 0 1 263 1933)">
   <path d="M 9.24805 0.830078 C 13.5547 0.830078 17.1387 -2.74414 17.1387 -7.05078 C 17.1387 -11.3574 13.5449 -14.9316 9.23828 -14.9316 C 4.94141 -14.9316 1.36719 -11.3574 1.36719 -7.05078 C 1.36719 -2.74414 4.95117 0.830078 9.24805 0.830078 Z M 9.24805 -0.654297 C 5.70312 -0.654297 2.87109 -3.49609 2.87109 -7.05078 C 2.87109 -10.6055 5.69336 -13.4473 9.23828 -13.4473 C 12.793 -13.4473 15.6348 -10.6055 15.6445 -7.05078 C 15.6543 -3.49609 12.8027 -0.654297 9.24805 -0.654297 Z M 9.22852 -3.62305 C 9.69727 -3.62305 9.9707 -3.93555 9.9707 -4.45312 L 9.9707 -6.31836 L 12.002 -6.31836 C 12.5 -6.31836 12.832 -6.57227 12.832 -7.04102 C 12.832 -7.51953 12.5195 -7.7832 12.002 -7.7832 L 9.9707 -7.7832 L 9.9707 -9.81445 C 9.9707 -10.332 9.69727 -10.6543 9.22852 -10.6543 C 8.75977 -10.6543 8.50586 -10.3125 8.50586 -9.81445 L 8.50586 -7.7832 L 6.49414 -7.7832 C 5.97656 -7.7832 5.64453 -7.51953 5.64453 -7.04102 C 5.64453 -6.57227 5.99609 -6.31836 6.49414 -6.31836 L 8.50586 -6.31836 L 8.50586 -4.45312 C 8.50586 -3.95508 8.75977 -3.62305 9.22852 -3.62305 Z"/>
  </g>
  <g id="" transform="matrix(1 0 0 1 281.506 1933)">
   <path d="M 11.709 2.91016 C 17.1582 2.91016 21.6699 -1.61133 21.6699 -7.05078 C 21.6699 -12.5 17.1484 -17.0117 11.6992 -17.0117 C 6.25977 -17.0117 1.74805 -12.5 1.74805 -7.05078 C 1.74805 -1.61133 6.26953 2.91016 11.709 2.91016 Z M 11.709 1.25 C 7.09961 1.25 3.41797 -2.44141 3.41797 -7.05078 C 3.41797 -11.6602 7.08984 -15.3516 11.6992 -15.3516 C 16.3086 -15.3516 20 -11.6602 20.0098 -7.05078 C 20.0195 -2.44141 16.3184 1.25 11.709 1.25 Z M 11.6797 -2.66602 C 12.207 -2.66602 12.5098 -3.01758 12.5098 -3.59375 L 12.5098 -6.23047 L 15.3223 -6.23047 C 15.8691 -6.23047 16.25 -6.51367 16.25 -7.03125 C 16.25 -7.55859 15.8887 -7.86133 15.3223 -7.86133 L 12.5098 -7.86133 L 12.5098 -10.6836 C 12.5098 -11.25 12.207 -11.6113 11.6797 -11.6113 C 11.1621 -11.6113 10.8789 -11.2305 10.8789 -10.6836 L 10.8789 -7.86133 L 8.07617 -7.86133 C 7.50977 -7.86133 7.13867 -7.55859 7.13867 -7.03125 C 7.13867 -6.51367 7.5293 -6.23047 8.07617 -6.23047 L 10.8789 -6.23047 L 10.8789 -3.59375 C 10.8789 -3.03711 11.1621 -2.66602 11.6797 -2.66602 Z"/>
  </g>
  <g id="" transform="matrix(1 0 0 1 304.924 1933)">
   <path d="M 14.9707 5.66406 C 21.9336 5.66406 27.6953 -0.0976562 27.6953 -7.05078 C 27.6953 -14.0137 21.9238 -19.7754 14.9609 -19.7754 C 8.00781 -19.7754 2.25586 -14.0137 2.25586 -7.05078 C 2.25586 -0.0976562 8.01758 5.66406 14.9707 5.66406 Z M 14.9707 3.84766 C 8.93555 3.84766 4.08203 -1.01562 4.08203 -7.05078 C 4.08203 -13.0957 8.92578 -17.9492 14.9609 -17.9492 C 21.0059 -17.9492 25.8594 -13.0957 25.8691 -7.05078 C 25.8789 -1.01562 21.0156 3.84766 14.9707 3.84766 Z M 14.9414 -1.38672 C 15.5176 -1.38672 15.8594 -1.77734 15.8594 -2.38281 L 15.8594 -6.13281 L 19.7754 -6.13281 C 20.3711 -6.13281 20.7812 -6.46484 20.7812 -7.02148 C 20.7812 -7.59766 20.3906 -7.93945 19.7754 -7.93945 L 15.8594 -7.93945 L 15.8594 -11.8652 C 15.8594 -12.4805 15.5176 -12.8711 14.9414 -12.8711 C 14.375 -12.8711 14.0527 -12.4609 14.0527 -11.8652 L 14.0527 -7.93945 L 10.1465 -7.93945 C 9.53125 -7.93945 9.13086 -7.59766 9.13086 -7.02148 C 9.13086 -6.46484 9.55078 -6.13281 10.1465 -6.13281 L 14.0527 -6.13281 L 14.0527 -2.38281 C 14.0527 -1.79688 14.375 -1.38672 14.9414 -1.38672 Z"/>
  </g>
  <text style="stroke:none;fill:black;font-family:-apple-system,&quot;SF Pro Display&quot;,&quot;SF Pro Text&quot;,Helvetica,sans-serif;font-weight:bold;" transform="matrix(1 0 0 1 263 1953)">Design Variations</text>
  <text style="stroke:none;fill:black;font-family:-apple-system,&quot;SF Pro Display&quot;,&quot;SF Pro Text&quot;,Helvetica,sans-serif;" transform="matrix(1 0 0 1 263 1971)">Symbols are supported in up to nine weights and three scales.</text>
  <text style="stroke:none;fill:black;font-family:-apple-system,&quot;SF Pro Display&quot;,&quot;SF Pro Text&quot;,Helvetica,sans-serif;" transform="matrix(1 0 0 1 263 1989)">For optimal layout with text and other symbols, vertically align</text>
  <text style="stroke:none;fill:black;font-family:-apple-system,&quot;SF Pro Display&quot;,&quot;SF Pro Text&quot;,Helvetica,sans-serif;" transform="matrix(1 0 0 1 263 2007)">symbols with the adjacent text.</text>
  <line id="" style="fill:none;stroke:#00AEEF;stroke-width:0.5;opacity:1.0;" x1="776" x2="776" y1="1919" y2="1933"/>
  <g id="" transform="matrix(1 0 0 1 776 1933)">
   <path d="M 3.31055 0.126953 C 3.82812 0.126953 4.08203 -0.0683594 4.26758 -0.605469 L 5.52734 -4.0625 L 11.2891 -4.0625 L 12.5488 -0.605469 C 12.7344 -0.0683594 12.9883 0.126953 13.4961 0.126953 C 14.0137 0.126953 14.3457 -0.185547 14.3457 -0.673828 C 14.3457 -0.839844 14.3164 -0.986328 14.2383 -1.20117 L 9.6582 -13.3887 C 9.43359 -13.9941 9.0332 -14.2871 8.4082 -14.2871 C 7.80273 -14.2871 7.39258 -13.9941 7.17773 -13.3984 L 2.59766 -1.19141 C 2.51953 -0.976562 2.49023 -0.830078 2.49023 -0.664062 C 2.49023 -0.175781 2.80273 0.126953 3.31055 0.126953 Z M 6.00586 -5.53711 L 8.37891 -12.1094 L 8.42773 -12.1094 L 10.8008 -5.53711 Z"/>
  </g>
  <line id="" style="fill:none;stroke:#00AEEF;stroke-width:0.5;opacity:1.0;" x1="792.836" x2="792.836" y1="1919" y2="1933"/>
  <text style="stroke:none;fill:black;font-family:-apple-system,&quot;SF Pro Display&quot;,&quot;SF Pro Text&quot;,Helvetica,sans-serif;font-weight:bold;" transform="matrix(1 0 0 1 776 1953)">Margins</text>
  <text style="stroke:none;fill:black;font-family:-apple-system,&quot;SF Pro Display&quot;,&quot;SF Pro Text&quot;,Helvetica,sans-serif;" transform="matrix(1 0 0 1 776 1971)">Leading and trailing margins on the left and right side of each symbol</text>
  <text style="stroke:none;fill:black;font-family:-apple-system,&quot;SF Pro Display&quot;,&quot;SF Pro Text&quot;,Helvetica,sans-serif;" transform="matrix(1 0 0 1 776 1989)">can be adjusted by modifying the x-location of the margin guidelines.</text>
  <text style="stroke:none;fill:black;font-family:-apple-system,&quot;SF Pro Display&quot;,&quot;SF Pro Text&quot;,Helvetica,sans-serif;" transform="matrix(1 0 0 1 776 2007)">Modifications are automatically applied proportionally to all</text>
  <text style="stroke:none;fill:black;font-family:-apple-system,&quot;SF Pro Display&quot;,&quot;SF Pro Text&quot;,Helvetica,sans-serif;" transform="matrix(1 0 0 1 776 2025)">scales and weights.</text>
  <g id="" transform="matrix(1 0 0 1 1289 1933)">
   <path d="M 2.8418 1.86523 L 4.54102 3.57422 C 5.40039 4.44336 6.38672 4.38477 7.31445 3.35938 L 17.4902 -7.85156 C 17.7539 -7.76367 18.0273 -7.7832 18.3398 -7.8418 L 19.4043 -8.03711 L 20.0684 -7.36328 L 20.0293 -6.80664 C 19.9902 -6.30859 20.1172 -5.92773 20.6055 -5.44922 L 21.3672 -4.70703 C 21.8457 -4.22852 22.4609 -4.19922 22.9297 -4.66797 L 25.8398 -7.58789 C 26.3086 -8.05664 26.2891 -8.65234 25.8105 -9.13086 L 25.0391 -9.89258 C 24.5605 -10.3711 24.1895 -10.5273 23.7109 -10.4883 L 23.1348 -10.4395 L 22.4902 -11.0742 L 22.7344 -12.1973 C 22.8613 -12.7637 22.7051 -13.2031 22.1191 -13.7891 L 19.9219 -15.9766 C 16.582 -19.2969 12.1484 -19.2188 9.25781 -16.3281 C 8.83789 -15.918 8.80859 -15.3418 9.04297 -14.9512 C 9.27734 -14.5898 9.73633 -14.3555 10.3809 -14.5215 C 11.8457 -14.8633 13.3691 -14.9219 14.7949 -13.9844 L 14.209 -12.5293 C 14.0137 -12.0508 13.9844 -11.6504 14.1113 -11.2891 L 3.04688 -0.898438 C 2.06055 0.0195312 1.98242 0.996094 2.8418 1.86523 Z M 10.752 -15.957 C 13.1836 -17.7344 16.4746 -17.4316 18.7012 -15.2051 L 21.1328 -12.793 C 21.3672 -12.5586 21.4062 -12.373 21.3379 -12.0312 L 21.0156 -10.5469 L 22.5195 -9.0625 L 23.5059 -9.12109 C 23.7598 -9.13086 23.8379 -9.11133 24.0332 -8.91602 L 24.6094 -8.33984 L 22.168 -5.89844 L 21.5918 -6.47461 C 21.3965 -6.66992 21.3672 -6.74805 21.377 -7.01172 L 21.4453 -7.98828 L 19.9512 -9.47266 L 18.4277 -9.21875 C 18.1055 -9.15039 17.959 -9.17969 17.7148 -9.41406 L 15.7129 -11.416 C 15.459 -11.6504 15.4297 -11.8164 15.5859 -12.1875 L 16.4648 -14.2773 C 14.9023 -15.7324 12.8711 -16.3574 10.8398 -15.7617 C 10.6836 -15.7227 10.625 -15.8496 10.752 -15.957 Z M 5.27344 2.30469 L 4.10156 1.14258 C 3.63281 0.683594 3.74023 0.341797 4.14062 -0.0195312 L 14.9512 -10.1953 L 16.416 -8.71094 L 6.42578 2.27539 C 6.07422 2.67578 5.74219 2.77344 5.27344 2.30469 Z"/>
  </g>
  <text style="stroke:none;fill:black;font-family:-apple-system,&quot;SF Pro Display&quot;,&quot;SF Pro Text&quot;,Helvetica,sans-serif;font-weight:bold;" transform="matrix(1 0 0 1 1289 1953)">Exporting</text>
  <text style="stroke:none;fill:black;font-family:-apple-system,&quot;SF Pro Display&quot;,&quot;SF Pro Text&quot;,Helvetica,sans-serif;" transform="matrix(1 0 0 1 1289 1971)">Symbols should be outlined when exporting to ensure the</text>
  <text style="stroke:none;fill:black;font-family:-apple-system,&quot;SF Pro Display&quot;,&quot;SF Pro Text&quot;,Helvetica,sans-serif;" transform="matrix(1 0 0 1 1289 1989)">design is preserved when submitting to Xcode.</text>
  <text id="template-version" style="stroke:none;fill:black;font-family:-apple-system,&quot;SF Pro Display&quot;,&quot;SF Pro Text&quot;,Helvetica,sans-serif;text-anchor:end;" transform="matrix(1 0 0 1 3036 1933)">Template v.2.0</text>
  <text style="stroke:none;fill:black;font-family:-apple-system,&quot;SF Pro Display&quot;,&quot;SF Pro Text&quot;,Helvetica,sans-serif;text-anchor:end;" transform="matrix(1 0 0 1 3036 1951)">Requires Xcode 12 or greater</text>
  <text style="stroke:none;fill:black;font-family:-apple-system,&quot;SF Pro Display&quot;,&quot;SF Pro Text&quot;,Helvetica,sans-serif;text-anchor:end;" transform="matrix(1 0 0 1 3036 1969)">Generated from 2.square</text>
  <text style="stroke:none;fill:black;font-family:-apple-system,&quot;SF Pro Display&quot;,&quot;SF Pro Text&quot;,Helvetica,sans-serif;text-anchor:end;" transform="matrix(1 0 0 1 3036 1987)">Typeset at 100 points</text>
  <text style="stroke:none;fill:black;font-family:-apple-system,&quot;SF Pro Display&quot;,&quot;SF Pro Text&quot;,Helvetica,sans-serif;" transform="matrix(1 0 0 1 263 726)">Small</text>
  <text style="stroke:none;fill:black;font-family:-apple-system,&quot;SF Pro Display&quot;,&quot;SF Pro Text&quot;,Helvetica,sans-serif;" transform="matrix(1 0 0 1 263 1156)">Medium</text>
  <text style="stroke:none;fill:black;font-family:-apple-system,&quot;SF Pro Display&quot;,&quot;SF Pro Text&quot;,Helvetica,sans-serif;" transform="matrix(1 0 0 1 263 1586)">Large</text>
 </g>
 <g id="Guides">
  <g id="H-reference" style="fill:#27AAE1;stroke:none;" transform="matrix(1 0 0 1 339 696)">
   <path d="M 0.976562 0 L 3.66211 0 L 12.9883 -24.4629 L 45.7031 -24.4629 L 55.0781 0 L 57.7148 0 L 30.6152 -70.459 L 28.125 -70.459 Z M 29.2969 -67.1387 L 29.3945 -67.1387 L 44.873 -26.709 L 13.8672 -26.709 Z"/>
  </g>
  <line id="Baseline-S" style="fill:none;stroke:#27AAE1;opacity:1;stroke-width:0.5;" x1="263" x2="3036" y1="696" y2="696"/>
  <line id="Capline-S" style="fill:none;stroke:#27AAE1;opacity:1;stroke-width:0.5;" x1="263" x2="3036" y1="625.541" y2="625.541"/>
  <g id="H-reference" style="fill:#27AAE1;stroke:none;" transform="matrix(1 0 0 1 339 1126)">
   <path d="M 0.976562 0 L 3.66211 0 L 12.9883 -24.4629 L 45.7031 -24.4629 L 55.0781 0 L 57.7148 0 L 30.6152 -70.459 L 28.125 -70.459 Z M 29.2969 -67.1387 L 29.3945 -67.1387 L 44.873 -26.709 L 13.8672 -26.709 Z"/>
  </g>
  <line id="Baseline-M" style="fill:none;stroke:#27AAE1;opacity:1;stroke-width:0.5;" x1="263" x2="3036" y1="1126" y2="1126"/>
  <line id="Capline-M" style="fill:none;stroke:#27AAE1;opacity:1;stroke-width:0.5;" x1="263" x2="3036" y1="1055.54" y2="1055.54"/>
  <g id="H-reference" style="fill:#27AAE1;stroke:none;" transform="matrix(1 0 0 1 339 1556)">
   <path d="M 0.976562 0 L 3.66211 0 L 12.9883 -24.4629 L 45.7031 -24.4629 L 55.0781 0 L 57.7148 0 L 30.6152 -70.459 L 28.125 -70.459 Z M 29.2969 -67.1387 L 29.3945 -67.1387 L 44.873 -26.709 L 13.8672 -26.709 Z"/>
  </g>
  <line id="Baseline-L" style="fill:none;stroke:#27AAE1;opacity:1;stroke-width:0.5;" x1="263" x2="3036" y1="1556" y2="1556"/>
  <line id="Capline-L" style="fill:none;stroke:#27AAE1;opacity:1;stroke-width:0.5;" x1="263" x2="3036" y1="1485.54" y2="1485.54"/>
  <line id="left-margin" style="fill:none;stroke:#00AEEF;stroke-width:0.5;opacity:1.0;" x1="1392.45" x2="1392.45" y1="1030.79" y2="1150.12"/>
  <line id="right-margin" style="fill:none;stroke:#00AEEF;stroke-width:0.5;opacity:1.0;" x1="1507.24" x2="1507.24" y1="1030.79" y2="1150.12"/>
 </g>
 <g id="Symbols">
  <g id="Black-L" transform="matrix(1 0 0 1 2855.62 1556)">
   <path d="M 39.9902 26.5137 L 115.576 26.5137 C 130.811 26.5137 139.502 17.8711 139.502 2.68555 L 139.502 -73.0957 C 139.502 -88.2812 130.811 -96.875 115.576 -96.875 L 39.9902 -96.875 C 24.7559 -96.875 16.0645 -88.2812 16.0645 -73.0957 L 16.0645 2.68555 C 16.0645 17.8711 24.7559 26.5137 39.9902 26.5137 Z M 42.6758 6.29883 C 38.4766 6.29883 36.3281 4.39453 36.3281 -0.146484 L 36.3281 -70.2148 C 36.3281 -74.7559 38.4766 -76.6602 42.6758 -76.6602 L 112.842 -76.6602 C 117.09 -76.6602 119.238 -74.7559 119.238 -70.2148 L 119.238 -0.146484 C 119.238 4.39453 117.09 6.29883 112.842 6.29883 Z M 63.7207 -7.76367 L 94.2871 -7.76367 C 99.4629 -7.76367 102.637 -10.5957 102.637 -15.2344 C 102.637 -19.873 99.5605 -22.5586 94.2871 -22.5586 L 81.8359 -22.5586 L 81.8359 -23.1445 L 89.6484 -30.3223 C 96.8262 -36.4258 100.293 -41.3574 100.293 -47.3633 C 100.293 -57.5195 91.3574 -64.4043 78.0762 -64.4043 C 67.5781 -64.4043 58.9844 -59.5215 56.3477 -52.2461 C 55.9082 -51.0742 55.7129 -49.8535 55.7129 -48.584 C 55.7129 -44.0918 58.9355 -41.6992 63.7695 -41.6992 C 67.5293 -41.6992 69.3359 -43.6035 70.8984 -45.5566 C 72.5098 -47.6074 74.1211 -49.8535 77.2461 -49.8535 C 80.127 -49.8535 81.9336 -48.291 81.9336 -45.752 C 81.9336 -42.9688 79.8828 -40.3809 75.6348 -36.7676 L 59.8633 -22.7051 C 56.6406 -19.9707 55.957 -17.5293 55.957 -14.8926 C 55.957 -10.7422 59.1797 -7.76367 63.7207 -7.76367 Z"/>
  </g>
  <g id="Heavy-L" transform="matrix(1 0 0 1 2559.93 1556)">
   <path d="M 38.8184 25.4883 L 114.697 25.4883 C 129.346 25.4883 137.451 17.4316 137.451 2.88086 L 137.451 -73.2422 C 137.451 -87.793 129.346 -95.8496 114.697 -95.8496 L 38.8184 -95.8496 C 24.2188 -95.8496 16.0645 -87.793 16.0645 -73.2422 L 16.0645 2.88086 C 16.0645 17.4316 24.2188 25.4883 38.8184 25.4883 Z M 40.918 8.00781 C 36.084 8.00781 33.5938 5.71289 33.5938 0.585938 L 33.5938 -70.9473 C 33.5938 -76.0742 36.084 -78.3691 40.918 -78.3691 L 112.549 -78.3691 C 117.383 -78.3691 119.922 -76.0742 119.922 -70.9473 L 119.922 0.585938 C 119.922 5.71289 117.383 8.00781 112.549 8.00781 Z M 62.6953 -7.56836 L 93.6523 -7.56836 C 98.0957 -7.56836 100.879 -10.0586 100.879 -14.1113 C 100.879 -18.1641 98.1934 -20.5566 93.6523 -20.5566 L 78.418 -20.5566 L 78.418 -21.0938 L 88.1348 -30.6152 C 94.9707 -36.7676 98.4863 -41.6504 98.4863 -47.8027 C 98.4863 -57.8125 89.8438 -64.502 77.0996 -64.502 C 66.9434 -64.502 58.5449 -59.5215 56.1035 -52.2949 C 55.7129 -51.1719 55.5664 -50.0488 55.5664 -48.9258 C 55.5664 -45.0195 58.3496 -42.8711 62.5 -42.8711 C 65.918 -42.8711 67.5293 -44.5801 68.8965 -46.4844 C 70.459 -49.0723 72.6074 -51.7578 76.5137 -51.7578 C 80.2246 -51.7578 82.5684 -49.707 82.5684 -46.4355 C 82.5684 -43.2617 80.2246 -40.3809 76.0254 -36.5723 L 59.1309 -20.6055 C 56.4453 -18.2617 55.8105 -16.1621 55.8105 -13.8672 C 55.8105 -10.1562 58.5938 -7.56836 62.6953 -7.56836 Z"/>
  </g>
  <g id="Bold-L" transform="matrix(1 0 0 1 2264.37 1556)">
   <path d="M 37.5 24.3652 L 113.721 24.3652 C 127.637 24.3652 135.156 16.8945 135.156 3.07617 L 135.156 -73.3887 C 135.156 -87.207 127.637 -94.7266 113.721 -94.7266 L 37.5 -94.7266 C 23.6328 -94.7266 16.0645 -87.2559 16.0645 -73.3887 L 16.0645 3.07617 C 16.0645 16.8945 23.6328 24.3652 37.5 24.3652 Z M 38.9648 9.91211 C 33.4473 9.91211 30.5176 7.17773 30.5176 1.41602 L 30.5176 -71.7285 C 30.5176 -77.5391 33.4473 -80.2734 38.9648 -80.2734 L 112.256 -80.2734 C 117.725 -80.2734 120.703 -77.5391 120.703 -71.7285 L 120.703 1.41602 C 120.703 7.17773 117.725 9.91211 112.256 9.91211 Z M 61.5234 -7.32422 L 92.9199 -7.32422 C 96.582 -7.32422 98.9258 -9.47266 98.9258 -12.8418 C 98.9258 -16.2598 96.6309 -18.3105 92.9199 -18.3105 L 74.5605 -18.3105 L 74.5605 -18.7988 L 86.4258 -30.9082 C 92.9199 -37.1094 96.4355 -41.9922 96.4355 -48.3398 C 96.4355 -58.1055 88.2324 -64.6484 75.9277 -64.6484 C 66.2598 -64.6484 58.0566 -59.5215 55.8105 -52.3438 C 55.5176 -51.3184 55.3711 -50.3418 55.3711 -49.3164 C 55.3711 -45.9961 57.666 -44.1406 61.1328 -44.1406 C 64.0625 -44.1406 65.4785 -45.6543 66.6992 -47.4609 C 68.2129 -50.6836 70.8984 -53.9062 75.6836 -53.9062 C 80.3711 -53.9062 83.3496 -51.2695 83.3496 -47.2168 C 83.3496 -43.5547 80.6152 -40.332 76.5137 -36.377 L 58.3496 -18.2617 C 56.25 -16.3574 55.6641 -14.5996 55.6641 -12.6953 C 55.6641 -9.52148 58.0078 -7.32422 61.5234 -7.32422 Z"/>
  </g>
  <g id="Semibold-L" transform="matrix(1 0 0 1 1968.44 1556)">
   <path d="M 36.6211 23.584 L 113.037 23.584 C 126.514 23.584 133.594 16.5039 133.594 3.17383 L 133.594 -73.5352 C 133.594 -86.8164 126.514 -93.9453 113.037 -93.9453 L 36.6211 -93.9453 C 23.1934 -93.9453 16.0645 -86.8652 16.0645 -73.5352 L 16.0645 3.17383 C 16.0645 16.5527 23.1934 23.584 36.6211 23.584 Z M 37.5977 11.2793 C 31.6406 11.2793 28.418 8.20312 28.418 1.95312 L 28.418 -72.3145 C 28.418 -78.5156 31.6406 -81.5918 37.5977 -81.5918 L 112.061 -81.5918 C 117.969 -81.5918 121.24 -78.5156 121.24 -72.3145 L 121.24 1.95312 C 121.24 8.20312 117.969 11.2793 112.061 11.2793 Z M 60.6934 -7.17773 L 92.4316 -7.17773 C 95.5078 -7.17773 97.5586 -9.0332 97.5586 -11.9629 C 97.5586 -14.9902 95.5566 -16.748 92.4316 -16.748 L 71.9238 -16.748 L 71.9238 -17.2363 L 85.2051 -31.1523 C 91.4551 -37.3535 94.9707 -42.2363 94.9707 -48.6816 C 94.9707 -58.3496 87.0605 -64.7949 75.1953 -64.7949 C 65.7715 -64.7949 57.7148 -59.5703 55.6641 -52.3438 C 55.3223 -51.416 55.2246 -50.4883 55.2246 -49.6094 C 55.2246 -46.7285 57.2266 -44.9707 60.2051 -44.9707 C 62.793 -44.9707 64.0625 -46.4355 65.1367 -48.1445 C 66.6016 -51.8066 69.7266 -55.4199 75.1465 -55.4199 C 80.4199 -55.4199 83.8379 -52.3926 83.8379 -47.7539 C 83.8379 -43.75 80.8594 -40.2832 76.8066 -36.2305 L 57.7637 -16.6504 C 56.1035 -15.0391 55.5664 -13.5742 55.5664 -11.9141 C 55.5664 -9.08203 57.5684 -7.17773 60.6934 -7.17773 Z"/>
  </g>
  <g id="Medium-L" transform="matrix(1 0 0 1 1672.31 1556)">
   <path d="M 35.9375 22.998 L 112.5 22.998 C 125.635 22.998 132.422 16.2109 132.422 3.27148 L 132.422 -73.6328 C 132.422 -86.5234 125.635 -93.3105 112.5 -93.3105 L 35.9375 -93.3105 C 22.9004 -93.3105 16.0645 -86.5723 16.0645 -73.6328 L 16.0645 3.27148 C 16.0645 16.2598 22.9004 22.998 35.9375 22.998 Z M 36.5723 12.2559 C 30.2246 12.2559 26.8066 8.98438 26.8066 2.39258 L 26.8066 -72.7051 C 26.8066 -79.2969 30.2246 -82.6172 36.5723 -82.6172 L 111.865 -82.6172 C 118.115 -82.6172 121.68 -79.2969 121.68 -72.7051 L 121.68 2.39258 C 121.68 8.98438 118.115 12.2559 111.865 12.2559 Z M 60.0586 -7.03125 L 92.041 -7.03125 C 94.7266 -7.03125 96.5332 -8.69141 96.5332 -11.3281 C 96.5332 -14.0137 94.7266 -15.5762 92.041 -15.5762 L 69.9219 -15.5762 L 69.9219 -16.0156 L 84.3262 -31.2988 C 90.3809 -37.5488 93.8965 -42.4316 93.8965 -48.9258 C 93.8965 -58.4961 86.2305 -64.8438 74.5605 -64.8438 C 65.4297 -64.8438 57.4707 -59.5703 55.5176 -52.3926 C 55.2246 -51.4648 55.127 -50.6348 55.127 -49.8047 C 55.127 -47.2656 56.8848 -45.6543 59.4727 -45.6543 C 61.8164 -45.6543 62.9883 -46.9727 63.9648 -48.6816 C 65.4297 -52.6855 68.8477 -56.543 74.707 -56.543 C 80.4688 -56.543 84.2285 -53.2227 84.2285 -48.1934 C 84.2285 -43.9453 81.0547 -40.2832 77.0508 -36.1328 L 57.373 -15.3809 C 55.957 -14.0625 55.4688 -12.7441 55.4688 -11.2793 C 55.4688 -8.74023 57.2754 -7.03125 60.0586 -7.03125 Z"/>
  </g>
  <g id="Regular-L" transform="matrix(1 0 0 1 1376.38 1556)">
   <path d="M 35.0586 22.2168 L 111.816 22.2168 C 124.463 22.2168 130.859 15.8691 130.859 3.41797 L 130.859 -73.7305 C 130.859 -86.1816 124.463 -92.5293 111.816 -92.5293 L 35.0586 -92.5293 C 22.4609 -92.5293 16.0645 -86.2305 16.0645 -73.7305 L 16.0645 3.41797 C 16.0645 15.918 22.4609 22.2168 35.0586 22.2168 Z M 35.2539 13.5742 C 28.418 13.5742 24.707 9.96094 24.707 2.97852 L 24.707 -73.291 C 24.707 -80.2734 28.418 -83.8867 35.2539 -83.8867 L 111.67 -83.8867 C 118.359 -83.8867 122.217 -80.2734 122.217 -73.291 L 122.217 2.97852 C 122.217 9.96094 118.359 13.5742 111.67 13.5742 Z M 59.2773 -6.88477 L 91.5527 -6.88477 C 93.6523 -6.88477 95.2148 -8.30078 95.2148 -10.4492 C 95.2148 -12.6953 93.6523 -14.0625 91.5527 -14.0625 L 67.2852 -14.0625 L 67.2852 -14.4531 L 83.1543 -31.543 C 88.9648 -37.793 92.5293 -42.6758 92.5293 -49.2676 C 92.5293 -58.7402 85.1074 -64.9414 73.8281 -64.9414 C 64.9414 -64.9414 57.1289 -59.5703 55.3223 -52.3926 C 55.0781 -51.5625 54.9805 -50.8301 54.9805 -50.0488 C 54.9805 -47.9492 56.4453 -46.5332 58.5449 -46.5332 C 60.5957 -46.5332 61.5723 -47.7051 62.4512 -49.3652 C 63.8672 -53.7598 67.6758 -58.0078 74.1699 -58.0078 C 80.5664 -58.0078 84.7656 -54.2969 84.7656 -48.7305 C 84.7656 -44.1406 81.2988 -40.2344 77.3438 -36.0352 L 56.7871 -13.8184 C 55.8105 -12.7441 55.3711 -11.7188 55.3711 -10.498 C 55.3711 -8.30078 56.8359 -6.88477 59.2773 -6.88477 Z"/>
  </g>
  <g id="Light-L" transform="matrix(1 0 0 1 1080.5 1556)">
   <path d="M 34.0332 21.4355 L 111.23 21.4355 C 123.096 21.4355 129.199 15.2344 129.199 3.56445 L 129.199 -73.8281 C 129.199 -85.5469 123.096 -91.6992 111.23 -91.6992 L 34.0332 -91.6992 C 22.168 -91.6992 16.0645 -85.6445 16.0645 -73.8281 L 16.0645 3.56445 C 16.0645 15.3809 22.168 21.4355 34.0332 21.4355 Z M 34.1797 14.7949 C 26.709 14.7949 22.7051 10.8398 22.7051 3.22266 L 22.7051 -73.4863 C 22.7051 -81.1523 26.709 -85.0586 34.1797 -85.0586 L 111.035 -85.0586 C 118.359 -85.0586 122.559 -81.1523 122.559 -73.4863 L 122.559 3.22266 C 122.559 10.8398 118.359 14.7949 111.035 14.7949 Z M 58.5938 -7.12891 L 90.7227 -7.12891 C 92.4316 -7.12891 93.6035 -8.30078 93.6035 -9.96094 C 93.6035 -11.7188 92.4316 -12.793 90.7227 -12.793 L 64.7461 -12.793 L 64.7461 -13.1836 L 81.7871 -31.7871 C 87.8906 -38.4277 91.0156 -43.1641 91.0156 -49.2676 C 91.0156 -58.4473 83.9355 -64.5508 73.1934 -64.5508 C 64.3555 -64.5508 56.6895 -59.2285 55.1758 -51.9043 C 55.0293 -51.1719 54.9316 -50.4883 54.9316 -49.8047 C 54.9316 -48.0957 56.0547 -46.9238 57.8125 -46.9238 C 59.4727 -46.9238 60.3027 -47.9004 60.8887 -49.3164 C 61.9629 -54.541 66.4551 -58.9844 73.3887 -58.9844 C 80.3711 -58.9844 84.8633 -54.9805 84.8633 -48.9258 C 84.8633 -44.3359 81.9824 -40.4297 77.6855 -35.791 L 56.5918 -12.7441 C 55.8105 -11.8652 55.4688 -11.084 55.4688 -10.1074 C 55.4688 -8.30078 56.6406 -7.12891 58.5938 -7.12891 Z"/>
  </g>
  <g id="Thin-L" transform="matrix(1 0 0 1 784.889 1556)">
   <path d="M 32.666 20.3613 L 110.352 20.3613 C 121.24 20.3613 127.002 14.4531 127.002 3.75977 L 127.002 -73.9746 C 127.002 -84.7168 121.24 -90.5762 110.352 -90.5762 L 32.666 -90.5762 C 21.7773 -90.5762 16.0645 -84.8633 16.0645 -73.9746 L 16.0645 3.75977 C 16.0645 14.6484 21.7773 20.3613 32.666 20.3613 Z M 32.8125 16.4062 C 24.4141 16.4062 19.9707 12.0117 19.9707 3.56445 L 19.9707 -73.7793 C 19.9707 -82.2754 24.4141 -86.6699 32.8125 -86.6699 L 110.205 -86.6699 C 118.359 -86.6699 123.047 -82.2754 123.047 -73.7793 L 123.047 3.56445 C 123.047 12.0117 118.359 16.4062 110.205 16.4062 Z M 57.7148 -7.42188 L 89.6484 -7.42188 C 90.7715 -7.42188 91.5039 -8.25195 91.5039 -9.32617 C 91.5039 -10.4492 90.7715 -11.1816 89.6484 -11.1816 L 61.377 -11.1816 L 61.377 -11.5234 L 80.0293 -32.1289 C 86.4746 -39.3066 89.0137 -43.7988 89.0137 -49.2188 C 89.0137 -58.1055 82.4219 -63.9648 72.3633 -63.9648 C 63.623 -63.9648 56.1035 -58.7402 55.0293 -51.2695 C 54.9316 -50.6348 54.8828 -50.0977 54.8828 -49.5117 C 54.8828 -48.3398 55.6152 -47.5098 56.7871 -47.5098 C 58.0566 -47.5098 58.6426 -48.1445 58.8379 -49.2676 C 59.4727 -55.5664 64.8438 -60.2539 72.4121 -60.2539 C 80.0781 -60.2539 84.9609 -55.957 84.9609 -49.1699 C 84.9609 -44.6289 82.8613 -40.6738 78.125 -35.498 L 56.2988 -11.3281 C 55.7617 -10.7422 55.5664 -10.2539 55.5664 -9.52148 C 55.5664 -8.25195 56.3477 -7.42188 57.7148 -7.42188 Z"/>
  </g>
  <g id="Ultralight-L" transform="matrix(1 0 0 1 488.739 1556)">
   <path d="M 31.9824 19.7754 L 109.961 19.7754 C 120.312 19.7754 125.879 14.0625 125.879 3.85742 L 125.879 -74.0723 C 125.879 -84.2773 120.312 -89.9902 109.961 -89.9902 L 31.9824 -89.9902 C 21.582 -89.9902 16.0645 -84.4727 16.0645 -74.0723 L 16.0645 3.85742 C 16.0645 14.2578 21.582 19.7754 31.9824 19.7754 Z M 32.1289 17.2363 C 23.1934 17.2363 18.6035 12.6465 18.6035 3.75977 L 18.6035 -73.9258 C 18.6035 -82.8125 23.1934 -87.4512 32.1289 -87.4512 L 109.766 -87.4512 C 118.359 -87.4512 123.291 -82.8125 123.291 -73.9258 L 123.291 3.75977 C 123.291 12.6465 118.359 17.2363 109.766 17.2363 Z M 57.2754 -7.61719 L 89.0625 -7.61719 C 89.8926 -7.61719 90.4297 -8.25195 90.4297 -8.98438 C 90.4297 -9.76562 89.8926 -10.3516 89.0625 -10.3516 L 59.6191 -10.3516 L 59.6191 -10.6445 L 79.1016 -32.2754 C 85.791 -39.7461 87.9883 -44.0918 87.9883 -49.1699 C 87.9883 -57.959 81.6406 -63.6719 71.9238 -63.6719 C 63.2812 -63.6719 55.8105 -58.4473 54.9805 -50.9766 C 54.9316 -50.3418 54.834 -49.9023 54.834 -49.3652 C 54.834 -48.4375 55.3711 -47.8027 56.2988 -47.8027 C 57.3242 -47.8027 57.8125 -48.291 57.8125 -49.2676 C 58.1543 -56.1035 64.0137 -60.9375 71.875 -60.9375 C 79.9316 -60.9375 85.0098 -56.3965 85.0098 -49.3164 C 85.0098 -44.7266 83.3008 -40.8203 78.3691 -35.3516 L 56.1523 -10.6445 C 55.7129 -10.1562 55.6152 -9.81445 55.6152 -9.22852 C 55.6152 -8.25195 56.25 -7.61719 57.2754 -7.61719 Z"/>
  </g>
  <g id="Black-M" transform="matrix(1 0 0 1 2872.19 1126)">
   <path d="M 31.9824 13.5742 L 90.4297 13.5742 C 102.686 13.5742 109.961 6.29883 109.961 -5.95703 L 109.961 -64.4043 C 109.961 -76.6602 102.686 -83.9355 90.4297 -83.9355 L 31.9824 -83.9355 C 19.7266 -83.9355 12.4512 -76.6602 12.4512 -64.4043 L 12.4512 -5.95703 C 12.4512 6.29883 19.7266 13.5742 31.9824 13.5742 Z M 34.9121 -4.73633 C 32.0801 -4.73633 30.7617 -5.81055 30.7617 -8.88672 L 30.7617 -61.4746 C 30.7617 -64.5508 32.0801 -65.6738 34.9121 -65.6738 L 87.5 -65.6738 C 90.332 -65.6738 91.6504 -64.5508 91.6504 -61.4746 L 91.6504 -8.88672 C 91.6504 -5.81055 90.332 -4.73633 87.5 -4.73633 Z M 50.4395 -14.3555 L 73.5352 -14.3555 C 78.2715 -14.3555 81.1035 -16.8945 81.1035 -20.9473 C 81.1035 -25.0488 78.3691 -27.4414 73.5352 -27.4414 L 66.6992 -27.4414 L 66.6992 -27.9297 L 70.8496 -31.2012 C 77.002 -36.084 79.3945 -39.7949 79.3945 -43.9941 C 79.3945 -52.002 72.168 -57.4219 61.5234 -57.4219 C 52.8809 -57.4219 46.0938 -53.8086 43.9453 -48.1445 C 43.6035 -47.1191 43.4082 -46.0449 43.4082 -45.0195 C 43.4082 -40.9668 46.2891 -38.9648 50.6348 -38.9648 C 54.0039 -38.9648 55.5664 -40.5273 56.7871 -41.9922 C 57.9102 -43.3105 58.8379 -44.4824 60.4492 -44.4824 C 61.8652 -44.4824 62.6465 -43.7988 62.6465 -42.5293 C 62.6465 -40.9668 61.8164 -39.4043 58.252 -36.5234 L 47.2656 -27.7832 C 44.1406 -25.2441 43.6035 -23.0469 43.6035 -20.6543 C 43.6035 -16.9922 46.4844 -14.3555 50.4395 -14.3555 Z"/>
  </g>
  <g id="Heavy-M" transform="matrix(1 0 0 1 2576.39 1126)">
   <path d="M 31.0059 12.6465 L 89.6484 12.6465 C 101.416 12.6465 108.154 5.9082 108.154 -5.81055 L 108.154 -64.5508 C 108.154 -76.2695 101.416 -83.0566 89.6484 -83.0566 L 31.0059 -83.0566 C 19.2383 -83.0566 12.4512 -76.3184 12.4512 -64.5508 L 12.4512 -5.81055 C 12.4512 5.9082 19.2383 12.6465 31.0059 12.6465 Z M 33.252 -3.17383 C 29.9316 -3.17383 28.2715 -4.63867 28.2715 -8.1543 L 28.2715 -62.207 C 28.2715 -65.7715 29.9316 -67.2363 33.252 -67.2363 L 87.3535 -67.2363 C 90.6738 -67.2363 92.334 -65.7715 92.334 -62.207 L 92.334 -8.1543 C 92.334 -4.63867 90.6738 -3.17383 87.3535 -3.17383 Z M 49.4629 -14.0625 L 73.0469 -14.0625 C 77.0996 -14.0625 79.5898 -16.2598 79.5898 -19.873 C 79.5898 -23.4863 77.1973 -25.5859 73.0469 -25.5859 L 63.623 -25.5859 L 63.623 -26.0254 L 69.5312 -31.4453 C 75.2441 -36.2305 77.7832 -40.0391 77.7832 -44.4824 C 77.7832 -52.3438 70.8496 -57.666 60.5957 -57.666 C 52.3438 -57.666 45.7031 -53.9551 43.7012 -48.291 C 43.3594 -47.3633 43.2129 -46.3867 43.2129 -45.459 C 43.2129 -41.8945 45.752 -40.0879 49.5117 -40.0879 C 52.4902 -40.0879 53.8574 -41.5527 55.0293 -43.0176 C 56.2012 -44.6777 57.4707 -46.3379 59.8633 -46.3379 C 62.0117 -46.3379 63.3301 -45.166 63.3301 -43.2617 C 63.3301 -41.2109 62.0117 -39.3066 58.5938 -36.377 L 46.5332 -25.7812 C 43.9453 -23.6328 43.4082 -21.6797 43.4082 -19.6289 C 43.4082 -16.3574 45.9473 -14.0625 49.4629 -14.0625 Z"/>
  </g>
  <g id="Bold-M" transform="matrix(1 0 0 1 2280.68 1126)">
   <path d="M 29.8828 11.6699 L 88.7207 11.6699 C 99.9512 11.6699 106.152 5.46875 106.152 -5.66406 L 106.152 -64.6973 C 106.152 -75.8789 99.9512 -82.0312 88.7207 -82.0312 L 29.8828 -82.0312 C 18.6523 -82.0312 12.4512 -75.8789 12.4512 -64.6973 L 12.4512 -5.66406 C 12.4512 5.51758 18.6523 11.6699 29.8828 11.6699 Z M 31.3965 -1.41602 C 27.5391 -1.41602 25.5371 -3.27148 25.5371 -7.32422 L 25.5371 -63.0371 C 25.5371 -67.1387 27.5391 -68.9453 31.3965 -68.9453 L 87.207 -68.9453 C 91.0156 -68.9453 93.0664 -67.1387 93.0664 -63.0371 L 93.0664 -7.32422 C 93.0664 -3.27148 91.0156 -1.41602 87.207 -1.41602 Z M 48.3887 -13.7207 L 72.4609 -13.7207 C 75.7812 -13.7207 77.8809 -15.625 77.8809 -18.6523 C 77.8809 -21.6797 75.8301 -23.4863 72.4609 -23.4863 L 60.1562 -23.4863 L 60.1562 -23.9258 L 68.0176 -31.6895 C 73.291 -36.4746 75.9766 -40.2832 75.9766 -45.0684 C 75.9766 -52.7832 69.3848 -57.959 59.5703 -57.959 C 51.7578 -57.959 45.3125 -54.0527 43.457 -48.4863 C 43.1641 -47.6074 43.0176 -46.7773 43.0176 -45.9473 C 43.0176 -42.9688 45.1172 -41.3574 48.2422 -41.3574 C 50.7812 -41.3574 52.002 -42.6758 53.0273 -44.0918 C 54.248 -46.2402 56.0059 -48.3887 59.1797 -48.3887 C 62.207 -48.3887 64.1113 -46.6797 64.1113 -44.043 C 64.1113 -41.5039 62.207 -39.209 58.9844 -36.2305 L 45.7031 -23.4863 C 43.7012 -21.7773 43.2129 -20.2148 43.2129 -18.457 C 43.2129 -15.6738 45.3125 -13.7207 48.3887 -13.7207 Z"/>
  </g>
  <g id="Semibold-M" transform="matrix(1 0 0 1 1984.65 1126)">
   <path d="M 29.1016 10.9863 L 88.0859 10.9863 C 98.9746 10.9863 104.785 5.17578 104.785 -5.56641 L 104.785 -64.8438 C 104.785 -75.5859 98.9746 -81.3477 88.0859 -81.3477 L 29.1016 -81.3477 C 18.2617 -81.3477 12.4512 -75.5859 12.4512 -64.8438 L 12.4512 -5.56641 C 12.4512 5.22461 18.2617 10.9863 29.1016 10.9863 Z M 30.127 -0.195312 C 25.8789 -0.195312 23.6328 -2.34375 23.6328 -6.78711 L 23.6328 -63.623 C 23.6328 -68.0664 25.8789 -70.166 30.127 -70.166 L 87.1094 -70.166 C 91.2598 -70.166 93.6035 -68.0664 93.6035 -63.623 L 93.6035 -6.78711 C 93.6035 -2.34375 91.2598 -0.195312 87.1094 -0.195312 Z M 47.6074 -13.5254 L 72.1191 -13.5254 C 74.9023 -13.5254 76.709 -15.1855 76.709 -17.8223 C 76.709 -20.459 74.9023 -22.0215 72.1191 -22.0215 L 57.7637 -22.0215 L 57.7637 -22.4609 L 66.9922 -31.8848 C 71.9238 -36.6211 74.7559 -40.4297 74.7559 -45.459 C 74.7559 -53.0762 68.3594 -58.1543 58.8379 -58.1543 C 51.3672 -58.1543 45.0195 -54.1504 43.2617 -48.584 C 42.9688 -47.8027 42.8711 -47.0215 42.8711 -46.2891 C 42.8711 -43.7012 44.6777 -42.2363 47.3633 -42.2363 C 49.6094 -42.2363 50.6836 -43.457 51.6602 -44.873 C 52.9297 -47.3145 54.9316 -49.8047 58.6914 -49.8047 C 62.3535 -49.8047 64.6973 -47.7539 64.6973 -44.6289 C 64.6973 -41.6992 62.3535 -39.1113 59.2773 -36.1328 L 45.1172 -21.9238 C 43.5547 -20.5078 43.1152 -19.1406 43.1152 -17.6758 C 43.1152 -15.1855 44.9219 -13.5254 47.6074 -13.5254 Z"/>
  </g>
  <g id="Medium-M" transform="matrix(1 0 0 1 1688.47 1126)">
   <path d="M 28.5156 10.4492 L 87.6465 10.4492 C 98.2422 10.4492 103.711 4.98047 103.711 -5.46875 L 103.711 -64.8926 C 103.711 -75.3418 98.2422 -80.8105 87.6465 -80.8105 L 28.5156 -80.8105 C 17.9688 -80.8105 12.4512 -75.3906 12.4512 -64.8926 L 12.4512 -5.46875 C 12.4512 4.98047 17.9688 10.4492 28.5156 10.4492 Z M 29.1504 0.732422 C 24.6582 0.732422 22.168 -1.61133 22.168 -6.34766 L 22.168 -64.0137 C 22.168 -68.75 24.6582 -71.0938 29.1504 -71.0938 L 87.0117 -71.0938 C 91.4551 -71.0938 93.9941 -68.75 93.9941 -64.0137 L 93.9941 -6.34766 C 93.9941 -1.61133 91.4551 0.732422 87.0117 0.732422 Z M 47.0703 -13.3301 L 71.8262 -13.3301 C 74.2188 -13.3301 75.8301 -14.7949 75.8301 -17.1387 C 75.8301 -19.5312 74.2188 -20.9473 71.8262 -20.9473 L 55.957 -20.9473 L 55.957 -21.3379 L 66.2109 -32.0312 C 70.8984 -36.7188 73.7793 -40.5762 73.7793 -45.752 C 73.7793 -53.2715 67.5781 -58.3008 58.3008 -58.3008 C 51.0254 -58.3008 44.7754 -54.1992 43.1152 -48.6816 C 42.8711 -47.9492 42.7734 -47.2168 42.7734 -46.5332 C 42.7734 -44.2383 44.3359 -42.8711 46.6797 -42.8711 C 48.7305 -42.8711 49.707 -44.043 50.6348 -45.459 C 51.9043 -48.0957 54.1504 -50.8789 58.3496 -50.8789 C 62.4512 -50.8789 65.0879 -48.584 65.0879 -45.0195 C 65.0879 -41.8457 62.5 -39.0625 59.4727 -36.084 L 44.7266 -20.752 C 43.457 -19.5312 43.0176 -18.3594 43.0176 -17.0898 C 43.0176 -14.8438 44.5801 -13.3301 47.0703 -13.3301 Z"/>
  </g>
  <g id="Regular-M" transform="matrix(1 0 0 1 1392.45 1126)">
   <path d="M 27.7832 9.76562 L 87.0117 9.76562 C 97.2656 9.76562 102.344 4.6875 102.344 -5.37109 L 102.344 -64.9902 C 102.344 -75.0488 97.2656 -80.127 87.0117 -80.127 L 27.7832 -80.127 C 17.5781 -80.127 12.4512 -75.0977 12.4512 -64.9902 L 12.4512 -5.37109 C 12.4512 4.73633 17.5781 9.76562 27.7832 9.76562 Z M 27.8809 1.9043 C 22.998 1.9043 20.3125 -0.683594 20.3125 -5.76172 L 20.3125 -64.5996 C 20.3125 -69.6777 22.998 -72.2656 27.8809 -72.2656 L 86.9141 -72.2656 C 91.748 -72.2656 94.4824 -69.6777 94.4824 -64.5996 L 94.4824 -5.76172 C 94.4824 -0.683594 91.748 1.9043 86.9141 1.9043 Z M 46.3379 -13.1348 L 71.4355 -13.1348 C 73.291 -13.1348 74.707 -14.3555 74.707 -16.3086 C 74.707 -18.3594 73.291 -19.5312 71.4355 -19.5312 L 53.6133 -19.5312 L 53.6133 -19.873 L 65.1855 -32.2266 C 69.5312 -36.8652 72.5586 -40.7227 72.5586 -46.1426 C 72.5586 -53.5645 66.6016 -58.4961 57.5684 -58.4961 C 50.6348 -58.4961 44.4824 -54.2969 42.9199 -48.8281 C 42.7246 -48.0957 42.6758 -47.5098 42.6758 -46.875 C 42.6758 -44.9707 43.9453 -43.75 45.8008 -43.75 C 47.5586 -43.75 48.4375 -44.8242 49.2676 -46.1914 C 50.5859 -49.1699 53.125 -52.2949 57.9102 -52.2949 C 62.5488 -52.2949 65.625 -49.6094 65.625 -45.5566 C 65.625 -41.9922 62.6465 -39.0137 59.7656 -35.9863 L 44.1406 -19.2383 C 43.3105 -18.3105 42.8711 -17.334 42.8711 -16.3086 C 42.8711 -14.3555 44.1406 -13.1348 46.3379 -13.1348 Z"/>
  </g>
  <g id="Light-M" transform="matrix(1 0 0 1 1096.47 1126)">
   <path d="M 26.8555 9.0332 L 86.4746 9.0332 C 95.9961 9.0332 100.879 4.15039 100.879 -5.22461 L 100.879 -65.0879 C 100.879 -74.5117 95.9961 -79.3945 86.4746 -79.3945 L 26.8555 -79.3945 C 17.334 -79.3945 12.4512 -74.5605 12.4512 -65.0879 L 12.4512 -5.22461 C 12.4512 4.19922 17.334 9.0332 26.8555 9.0332 Z M 26.9531 2.97852 C 21.4844 2.97852 18.5059 0.0976562 18.5059 -5.56641 L 18.5059 -64.7949 C 18.5059 -70.4102 21.4844 -73.3398 26.9531 -73.3398 L 86.3281 -73.3398 C 91.748 -73.3398 94.8242 -70.4102 94.8242 -64.7949 L 94.8242 -5.56641 C 94.8242 0.0976562 91.748 2.97852 86.3281 2.97852 Z M 45.7031 -13.3301 L 70.7031 -13.3301 C 72.168 -13.3301 73.2422 -14.3555 73.2422 -15.8691 C 73.2422 -17.4805 72.168 -18.4082 70.7031 -18.4082 L 51.3184 -18.4082 L 51.3184 -18.7012 L 64.0137 -32.4219 C 68.6035 -37.4512 71.1914 -41.1621 71.1914 -46.0938 C 71.1914 -53.3691 65.5762 -58.1055 56.9824 -58.1055 C 50.1465 -58.1055 44.1406 -53.9551 42.8223 -48.3887 C 42.6758 -47.7539 42.5781 -47.2168 42.5781 -46.6309 C 42.5781 -45.1172 43.6035 -44.1406 45.1172 -44.1406 C 46.582 -44.1406 47.3145 -44.9707 47.9004 -46.1914 C 48.877 -49.8535 52.0508 -53.1738 57.2266 -53.1738 C 62.3535 -53.1738 65.7227 -50.2441 65.7227 -45.752 C 65.7227 -42.1875 63.2324 -39.1602 60.0586 -35.791 L 43.9453 -18.2617 C 43.2617 -17.5293 42.9199 -16.7969 42.9199 -15.918 C 42.9199 -14.3555 43.9941 -13.3301 45.7031 -13.3301 Z"/>
  </g>
  <g id="Thin-M" transform="matrix(1 0 0 1 800.758 1126)">
   <path d="M 25.6348 8.05664 L 85.7422 8.05664 C 94.3848 8.05664 98.877 3.4668 98.877 -5.0293 L 98.877 -65.2344 C 98.877 -73.7305 94.3848 -78.3691 85.7422 -78.3691 L 25.6348 -78.3691 C 16.9922 -78.3691 12.4512 -73.877 12.4512 -65.2344 L 12.4512 -5.0293 C 12.4512 3.56445 16.9922 8.05664 25.6348 8.05664 Z M 25.7324 4.44336 C 19.3848 4.44336 16.0645 1.12305 16.0645 -5.22461 L 16.0645 -65.0391 C 16.0645 -71.4355 19.3848 -74.7559 25.7324 -74.7559 L 85.5957 -74.7559 C 91.748 -74.7559 95.2637 -71.4355 95.2637 -65.0391 L 95.2637 -5.22461 C 95.2637 1.12305 91.748 4.44336 85.5957 4.44336 Z M 44.9219 -13.623 L 69.7266 -13.623 C 70.7031 -13.623 71.3867 -14.3066 71.3867 -15.2832 C 71.3867 -16.3086 70.7031 -16.9434 69.7266 -16.9434 L 48.291 -16.9434 L 48.291 -17.2363 L 62.4023 -32.7637 C 67.334 -38.1836 69.3848 -41.6992 69.3848 -46.0449 C 69.3848 -53.0273 64.209 -57.6172 56.25 -57.6172 C 49.4629 -57.6172 43.6035 -53.5645 42.6758 -47.8027 C 42.5781 -47.2656 42.5293 -46.8262 42.5293 -46.3867 C 42.5293 -45.3125 43.2129 -44.6289 44.2383 -44.6289 C 45.3125 -44.6289 45.8008 -45.2148 46.0449 -46.1426 C 46.6309 -50.7812 50.5859 -54.3457 56.3477 -54.3457 C 62.1094 -54.3457 65.8203 -51.0742 65.8203 -45.9961 C 65.8203 -42.4316 64.0137 -39.4043 60.4492 -35.498 L 43.7012 -17.041 C 43.2129 -16.5039 43.0176 -16.0645 43.0176 -15.4297 C 43.0176 -14.3066 43.75 -13.623 44.9219 -13.623 Z"/>
  </g>
  <g id="Ultralight-M" transform="matrix(1 0 0 1 504.535 1126)">
   <path d="M 25 7.56836 L 85.3516 7.56836 C 93.5059 7.56836 97.9004 3.125 97.9004 -4.98047 L 97.9004 -65.2832 C 97.9004 -73.3887 93.5059 -77.832 85.3516 -77.832 L 25 -77.832 C 16.7969 -77.832 12.4512 -73.4863 12.4512 -65.2832 L 12.4512 -4.98047 C 12.4512 3.22266 16.7969 7.56836 25 7.56836 Z M 25.0977 5.17578 C 18.3594 5.17578 14.8438 1.66016 14.8438 -5.07812 L 14.8438 -65.1855 C 14.8438 -71.9727 18.3594 -75.4395 25.0977 -75.4395 L 85.2051 -75.4395 C 91.748 -75.4395 95.5078 -71.9727 95.5078 -65.1855 L 95.5078 -5.07812 C 95.5078 1.66016 91.748 5.17578 85.2051 5.17578 Z M 44.5312 -13.7695 L 69.1895 -13.7695 C 69.9219 -13.7695 70.4102 -14.3066 70.4102 -14.9902 C 70.4102 -15.7227 69.9219 -16.2109 69.1895 -16.2109 L 46.7285 -16.2109 L 46.7285 -16.4551 L 61.5723 -32.9102 C 66.6992 -38.5742 68.5059 -41.9922 68.5059 -46.0449 C 68.5059 -52.8809 63.5254 -57.373 55.8594 -57.373 C 49.1699 -57.373 43.3594 -53.3203 42.627 -47.5098 C 42.5781 -47.0215 42.4805 -46.6309 42.4805 -46.2402 C 42.4805 -45.4102 42.9688 -44.873 43.7988 -44.873 C 44.6289 -44.873 45.0684 -45.3125 45.1172 -46.0938 C 45.459 -51.2695 49.8535 -54.9316 55.8594 -54.9316 C 62.0117 -54.9316 65.8691 -51.5137 65.8691 -46.0938 C 65.8691 -42.5781 64.4043 -39.502 60.6445 -35.3516 L 43.5547 -16.4062 C 43.2129 -15.9668 43.0664 -15.6738 43.0664 -15.1855 C 43.0664 -14.3066 43.6035 -13.7695 44.5312 -13.7695 Z"/>
  </g>
  <g id="Black-S" transform="matrix(1 0 0 1 2885.5 696)">
   <path d="M 25 2.92969 L 70.8008 2.92969 C 80.3711 2.92969 86.0352 -2.73438 86.0352 -12.3047 L 86.0352 -58.1055 C 86.0352 -67.6758 80.3711 -73.3398 70.8008 -73.3398 L 25 -73.3398 C 15.4297 -73.3398 9.76562 -67.6758 9.76562 -58.1055 L 9.76562 -12.3047 C 9.76562 -2.73438 15.4297 2.92969 25 2.92969 Z M 27.2461 -11.2305 C 25 -11.2305 23.9258 -12.1094 23.9258 -14.5508 L 23.9258 -55.8594 C 23.9258 -58.3008 25 -59.1797 27.2461 -59.1797 L 68.5547 -59.1797 C 70.8008 -59.1797 71.875 -58.3008 71.875 -55.8594 L 71.875 -14.5508 C 71.875 -12.1094 70.8008 -11.2305 68.5547 -11.2305 Z M 39.4531 -18.8477 L 57.5684 -18.8477 C 61.2305 -18.8477 63.4277 -20.8008 63.4277 -23.9746 C 63.4277 -27.1484 61.3281 -29.0039 57.5684 -29.0039 L 52.0508 -29.0039 L 52.0508 -29.3945 L 55.4199 -32.0801 C 60.2051 -35.8887 62.1094 -38.8184 62.1094 -42.1387 C 62.1094 -48.3887 56.4453 -52.6367 48.1445 -52.6367 C 41.4062 -52.6367 36.084 -49.8047 34.4238 -45.3613 C 34.1309 -44.5801 33.9844 -43.75 33.9844 -42.9199 C 33.9844 -39.7949 36.2305 -38.2324 39.5996 -38.2324 C 42.1875 -38.2324 43.4082 -39.4531 44.3848 -40.625 C 45.2637 -41.6504 45.9961 -42.627 47.3145 -42.627 C 48.4863 -42.627 49.1211 -42.041 49.1211 -41.0156 C 49.1211 -39.7461 48.4375 -38.4766 45.6543 -36.2305 L 36.9629 -29.248 C 34.5703 -27.2949 34.1309 -25.5859 34.1309 -23.7305 C 34.1309 -20.8984 36.377 -18.8477 39.4531 -18.8477 Z"/>
  </g>
  <g id="Heavy-S" transform="matrix(1 0 0 1 2589.4 696)">
   <path d="M 24.3652 2.34375 L 70.2637 2.34375 C 79.541 2.34375 84.8145 -2.97852 84.8145 -12.207 L 84.8145 -58.2031 C 84.8145 -67.4316 79.541 -72.7539 70.2637 -72.7539 L 24.3652 -72.7539 C 15.0879 -72.7539 9.76562 -67.4316 9.76562 -58.2031 L 9.76562 -12.207 C 9.76562 -2.97852 15.0879 2.34375 24.3652 2.34375 Z M 26.0742 -10.1562 C 23.5352 -10.1562 22.2656 -11.2793 22.2656 -14.0137 L 22.2656 -56.3965 C 22.2656 -59.1309 23.5352 -60.2539 26.0742 -60.2539 L 68.5059 -60.2539 C 71.0449 -60.2539 72.3633 -59.1309 72.3633 -56.3965 L 72.3633 -14.0137 C 72.3633 -11.2793 71.0449 -10.1562 68.5059 -10.1562 Z M 38.7695 -18.6035 L 57.2754 -18.6035 C 60.4492 -18.6035 62.4512 -20.3613 62.4512 -23.1934 C 62.4512 -26.0254 60.5469 -27.6855 57.2754 -27.6855 L 49.9512 -27.6855 L 49.9512 -28.0762 L 54.541 -32.2266 C 58.9844 -35.9863 61.0352 -38.916 61.0352 -42.5293 C 61.0352 -48.6816 55.5664 -52.8809 47.5098 -52.8809 C 41.0645 -52.8809 35.8398 -49.9512 34.2285 -45.5078 C 33.9844 -44.7754 33.8379 -44.043 33.8379 -43.2617 C 33.8379 -40.5273 35.8398 -39.0625 38.8184 -39.0625 C 41.1133 -39.0625 42.2363 -40.1855 43.1641 -41.4062 C 44.1406 -42.627 45.0684 -43.9453 46.9238 -43.9453 C 48.6328 -43.9453 49.6582 -43.0176 49.6582 -41.5527 C 49.6582 -39.8926 48.5352 -38.3789 45.8984 -36.1328 L 36.4258 -27.832 C 34.4238 -26.123 33.9844 -24.6094 33.9844 -22.998 C 33.9844 -20.4102 35.9863 -18.6035 38.7695 -18.6035 Z"/>
  </g>
  <g id="Bold-S" transform="matrix(1 0 0 1 2293.35 696)">
   <path d="M 23.6328 1.66016 L 69.6289 1.66016 C 78.6133 1.66016 83.4961 -3.22266 83.4961 -12.1094 L 83.4961 -58.3008 C 83.4961 -67.1875 78.6133 -72.0703 69.6289 -72.0703 L 23.6328 -72.0703 C 14.6973 -72.0703 9.76562 -67.1875 9.76562 -58.3008 L 9.76562 -12.1094 C 9.76562 -3.22266 14.6973 1.66016 23.6328 1.66016 Z M 24.8047 -8.93555 C 21.9238 -8.93555 20.3613 -10.3516 20.3613 -13.4277 L 20.3613 -56.9824 C 20.3613 -60.0586 21.9238 -61.4746 24.8047 -61.4746 L 68.457 -61.4746 C 71.3379 -61.4746 72.9004 -60.0586 72.9004 -56.9824 L 72.9004 -13.4277 C 72.9004 -10.3516 71.3379 -8.93555 68.457 -8.93555 Z M 38.0371 -18.3105 L 56.9336 -18.3105 C 59.6191 -18.3105 61.3281 -19.8242 61.3281 -22.3145 C 61.3281 -24.8047 59.668 -26.2207 56.9336 -26.2207 L 47.5586 -26.2207 L 47.5586 -26.5625 L 53.5645 -32.4219 C 57.5684 -36.0352 59.8145 -39.0625 59.8145 -42.9688 C 59.8145 -49.0723 54.541 -53.125 46.7773 -53.125 C 40.6738 -53.125 35.5469 -50.0488 34.0332 -45.7031 C 33.7891 -45.0195 33.6914 -44.3848 33.6914 -43.7012 C 33.6914 -41.3086 35.4004 -39.9902 37.8906 -39.9902 C 39.9414 -39.9902 40.9668 -41.0645 41.8457 -42.2363 C 42.8711 -43.75 44.0918 -45.4102 46.4844 -45.4102 C 48.7793 -45.4102 50.2441 -44.1406 50.2441 -42.1387 C 50.2441 -40.0879 48.584 -38.2812 46.1426 -36.084 L 35.8398 -26.2207 C 34.2285 -24.8047 33.8379 -23.5352 33.8379 -22.168 C 33.8379 -19.873 35.5469 -18.3105 38.0371 -18.3105 Z"/>
  </g>
  <g id="Semibold-S" transform="matrix(1 0 0 1 1997.1 696)">
   <path d="M 23.0957 1.17188 L 69.1895 1.17188 C 77.9297 1.17188 82.5684 -3.36914 82.5684 -12.0117 L 82.5684 -58.3984 C 82.5684 -67.041 77.9297 -71.582 69.1895 -71.582 L 23.0957 -71.582 C 14.4043 -71.582 9.76562 -67.041 9.76562 -58.3984 L 9.76562 -12.0117 C 9.76562 -3.36914 14.4043 1.17188 23.0957 1.17188 Z M 23.877 -8.10547 C 20.752 -8.10547 19.0918 -9.7168 19.0918 -12.9883 L 19.0918 -57.4219 C 19.0918 -60.6934 20.752 -62.3047 23.877 -62.3047 L 68.4082 -62.3047 C 71.5332 -62.3047 73.2422 -60.6934 73.2422 -57.4219 L 73.2422 -12.9883 C 73.2422 -9.7168 71.5332 -8.10547 68.4082 -8.10547 Z M 37.5 -18.1152 L 56.7383 -18.1152 C 59.0332 -18.1152 60.5469 -19.4824 60.5469 -21.6797 C 60.5469 -23.9258 59.0332 -25.2441 56.7383 -25.2441 L 45.9473 -25.2441 L 45.9473 -25.5371 L 52.8809 -32.5195 C 56.5918 -36.1328 58.9844 -39.1602 58.9844 -43.2617 C 58.9844 -49.3164 53.8574 -53.3203 46.2402 -53.3203 C 40.3809 -53.3203 35.4004 -50.1465 33.9355 -45.8496 C 33.6914 -45.2148 33.5938 -44.5801 33.5938 -43.9453 C 33.5938 -41.8457 35.1074 -40.625 37.3047 -40.625 C 39.1602 -40.625 40.0391 -41.6504 40.918 -42.8223 C 41.9922 -44.4824 43.3594 -46.4355 46.1914 -46.4355 C 48.877 -46.4355 50.6836 -44.873 50.6836 -42.5293 C 50.6836 -40.2344 48.6816 -38.2324 46.3379 -35.9863 L 35.4004 -25.0977 C 34.1309 -23.9258 33.7402 -22.8027 33.7402 -21.582 C 33.7402 -19.5312 35.2051 -18.1152 37.5 -18.1152 Z"/>
  </g>
  <g id="Medium-S" transform="matrix(1 0 0 1 1700.75 696)">
   <path d="M 22.7051 0.830078 L 68.8965 0.830078 C 77.4414 0.830078 81.8359 -3.51562 81.8359 -11.9629 L 81.8359 -58.4473 C 81.8359 -66.8945 77.4414 -71.2402 68.8965 -71.2402 L 22.7051 -71.2402 C 14.209 -71.2402 9.76562 -66.8945 9.76562 -58.4473 L 9.76562 -11.9629 C 9.76562 -3.51562 14.209 0.830078 22.7051 0.830078 Z M 23.1934 -7.4707 C 19.9219 -7.4707 18.0664 -9.22852 18.0664 -12.6953 L 18.0664 -57.7148 C 18.0664 -61.1816 19.9219 -62.9395 23.1934 -62.9395 L 68.4082 -62.9395 C 71.6797 -62.9395 73.5352 -61.1816 73.5352 -57.7148 L 73.5352 -12.6953 C 73.5352 -9.22852 71.6797 -7.4707 68.4082 -7.4707 Z M 37.1094 -18.0176 L 56.543 -18.0176 C 58.5449 -18.0176 59.9609 -19.2383 59.9609 -21.2402 C 59.9609 -23.291 58.5938 -24.4629 56.543 -24.4629 L 44.7266 -24.4629 L 44.7266 -24.7559 L 52.3438 -32.6172 C 55.8594 -36.1816 58.3496 -39.2578 58.3496 -43.5059 C 58.3496 -49.4629 53.3691 -53.4668 45.8496 -53.4668 C 40.1855 -53.4668 35.2539 -50.2441 33.7891 -45.9473 C 33.5938 -45.3125 33.5449 -44.7754 33.5449 -44.1895 C 33.5449 -42.2363 34.8633 -41.0645 36.8164 -41.0645 C 38.5254 -41.0645 39.4043 -42.0898 40.1855 -43.2617 C 41.3086 -45.0684 42.8711 -47.168 45.9961 -47.168 C 48.9746 -47.168 50.9766 -45.459 50.9766 -42.8223 C 50.9766 -40.332 48.7305 -38.1836 46.4844 -35.9863 L 35.1074 -24.2676 C 34.0332 -23.2422 33.6426 -22.2168 33.6426 -21.1426 C 33.6426 -19.2383 35.0098 -18.0176 37.1094 -18.0176 Z"/>
  </g>
  <g id="Regular-S" transform="matrix(1 0 0 1 1404.51 696)">
   <path d="M 22.2168 0.390625 L 68.457 0.390625 C 76.8066 0.390625 80.9082 -3.71094 80.9082 -11.9141 L 80.9082 -58.4961 C 80.9082 -66.6992 76.8066 -70.8008 68.457 -70.8008 L 22.2168 -70.8008 C 13.916 -70.8008 9.76562 -66.6992 9.76562 -58.4961 L 9.76562 -11.9141 C 9.76562 -3.71094 13.916 0.390625 22.2168 0.390625 Z M 22.3145 -6.68945 C 18.7988 -6.68945 16.7969 -8.54492 16.7969 -12.2559 L 16.7969 -58.1543 C 16.7969 -61.8164 18.7988 -63.7207 22.3145 -63.7207 L 68.3594 -63.7207 C 71.875 -63.7207 73.877 -61.8164 73.877 -58.1543 L 73.877 -12.2559 C 73.877 -8.54492 71.875 -6.68945 68.3594 -6.68945 Z M 36.5723 -17.8223 L 56.3477 -17.8223 C 57.959 -17.8223 59.1797 -18.8965 59.1797 -20.6543 C 59.1797 -22.4121 57.959 -23.4375 56.3477 -23.4375 L 43.1152 -23.4375 L 43.1152 -23.7305 L 51.6602 -32.7637 C 54.9316 -36.2305 57.5195 -39.3066 57.5195 -43.7988 C 57.5195 -49.707 52.6855 -53.6621 45.3613 -53.6621 C 39.8926 -53.6621 35.0586 -50.3418 33.6914 -46.0938 C 33.4961 -45.5078 33.4473 -44.9707 33.4473 -44.4336 C 33.4473 -42.7734 34.5703 -41.6992 36.2305 -41.6992 C 37.7441 -41.6992 38.4766 -42.6758 39.3066 -43.8477 C 40.4785 -45.8008 42.1875 -48.1934 45.7031 -48.1934 C 49.0723 -48.1934 51.3672 -46.1914 51.3672 -43.2617 C 51.3672 -40.4785 48.7793 -38.1348 46.6797 -35.8887 L 34.668 -23.1445 C 33.9355 -22.3633 33.5449 -21.4844 33.5449 -20.6055 C 33.5449 -18.8965 34.668 -17.8223 36.5723 -17.8223 Z"/>
  </g>
  <g id="Light-S" transform="matrix(1 0 0 1 1108.46 696)">
   <path d="M 21.3867 -0.292969 L 67.9688 -0.292969 C 75.7324 -0.292969 79.5898 -4.15039 79.5898 -11.7676 L 79.5898 -58.5938 C 79.5898 -66.2109 75.7324 -70.1172 67.9688 -70.1172 L 21.3867 -70.1172 C 13.6719 -70.1172 9.76562 -66.2598 9.76562 -58.5938 L 9.76562 -11.7676 C 9.76562 -4.15039 13.6719 -0.292969 21.3867 -0.292969 Z M 21.4844 -5.71289 C 17.4316 -5.71289 15.1855 -7.86133 15.1855 -12.0605 L 15.1855 -58.3008 C 15.1855 -62.5 17.4316 -64.6973 21.4844 -64.6973 L 67.8711 -64.6973 C 71.875 -64.6973 74.1699 -62.5 74.1699 -58.3008 L 74.1699 -12.0605 C 74.1699 -7.86133 71.875 -5.71289 67.8711 -5.71289 Z M 36.0352 -18.0176 L 55.6641 -18.0176 C 56.9824 -18.0176 57.959 -18.8965 57.959 -20.2148 C 57.959 -21.6309 56.9824 -22.4609 55.6641 -22.4609 L 41.0645 -22.4609 L 41.0645 -22.7539 L 50.5859 -32.959 C 54.1016 -36.7188 56.2988 -39.6973 56.2988 -43.75 C 56.2988 -49.5117 51.7578 -53.3203 44.873 -53.3203 C 39.4531 -53.3203 34.7168 -50.0488 33.5938 -45.7031 C 33.4473 -45.166 33.3984 -44.7266 33.3984 -44.2383 C 33.3984 -42.9199 34.2773 -42.041 35.6445 -42.041 C 36.8652 -42.041 37.5 -42.8223 38.0371 -43.7988 C 38.9648 -46.4355 41.2109 -48.9746 45.1172 -48.9746 C 48.9258 -48.9746 51.4648 -46.7285 51.4648 -43.4082 C 51.4648 -40.625 49.3164 -38.2812 46.9238 -35.7422 L 34.5215 -22.3145 C 33.8867 -21.6309 33.5938 -20.9961 33.5938 -20.2637 C 33.5938 -18.8965 34.5215 -18.0176 36.0352 -18.0176 Z"/>
  </g>
  <g id="Thin-S" transform="matrix(1 0 0 1 812.599 696)">
   <path d="M 20.3125 -1.12305 L 67.334 -1.12305 C 74.2676 -1.12305 77.8809 -4.78516 77.8809 -11.6211 L 77.8809 -58.6914 C 77.8809 -65.5762 74.2676 -69.2383 67.334 -69.2383 L 20.3125 -69.2383 C 13.3789 -69.2383 9.76562 -65.625 9.76562 -58.6914 L 9.76562 -11.6211 C 9.76562 -4.6875 13.3789 -1.12305 20.3125 -1.12305 Z M 20.4102 -4.44336 C 15.625 -4.44336 13.0859 -6.93359 13.0859 -11.8164 L 13.0859 -58.5449 C 13.0859 -63.3789 15.625 -65.918 20.4102 -65.918 L 67.2363 -65.918 C 71.875 -65.918 74.5605 -63.3789 74.5605 -58.5449 L 74.5605 -11.8164 C 74.5605 -6.93359 71.875 -4.44336 67.2363 -4.44336 Z M 35.3516 -18.2617 L 54.7852 -18.2617 C 55.6641 -18.2617 56.2988 -18.8477 56.2988 -19.7266 C 56.2988 -20.6055 55.6641 -21.1914 54.7852 -21.1914 L 38.4277 -21.1914 L 38.4277 -21.3867 L 49.1699 -33.2031 C 52.9785 -37.4023 54.7363 -40.1855 54.7363 -43.75 C 54.7363 -49.2676 50.5859 -52.8809 44.2383 -52.8809 C 38.916 -52.8809 34.2773 -49.6582 33.4961 -45.2148 C 33.3984 -44.7754 33.3496 -44.3848 33.3496 -43.9941 C 33.3496 -43.1152 33.9355 -42.4805 34.8145 -42.4805 C 35.7422 -42.4805 36.1816 -42.9688 36.4258 -43.7988 C 36.9629 -47.2168 39.9414 -50 44.2871 -50 C 48.7305 -50 51.5625 -47.4609 51.5625 -43.6035 C 51.5625 -40.8203 50 -38.4277 47.2656 -35.498 L 34.2773 -21.1914 C 33.8867 -20.752 33.6914 -20.3613 33.6914 -19.8242 C 33.6914 -18.8477 34.3262 -18.2617 35.3516 -18.2617 Z"/>
  </g>
  <g id="Ultralight-S" transform="matrix(1 0 0 1 516.352 696)">
   <path d="M 19.7754 -1.5625 L 66.9922 -1.5625 C 73.5352 -1.5625 76.9531 -5.12695 76.9531 -11.5234 L 76.9531 -58.7891 C 76.9531 -65.2344 73.5352 -68.75 66.9922 -68.75 L 19.7754 -68.75 C 13.2324 -68.75 9.76562 -65.2832 9.76562 -58.7891 L 9.76562 -11.5234 C 9.76562 -5.0293 13.2324 -1.5625 19.7754 -1.5625 Z M 19.873 -3.75977 C 14.6484 -3.75977 11.9629 -6.44531 11.9629 -11.6699 L 11.9629 -58.6426 C 11.9629 -63.8672 14.6484 -66.5527 19.873 -66.5527 L 66.8945 -66.5527 C 71.875 -66.5527 74.7559 -63.8672 74.7559 -58.6426 L 74.7559 -11.6699 C 74.7559 -6.44531 71.875 -3.75977 66.8945 -3.75977 Z M 35.0098 -18.3594 L 54.3457 -18.3594 C 54.9805 -18.3594 55.4199 -18.8477 55.4199 -19.4336 C 55.4199 -20.0684 54.9805 -20.5078 54.3457 -20.5078 L 37.0117 -20.5078 L 37.0117 -20.7031 L 48.4375 -33.3496 C 52.4414 -37.7441 53.9062 -40.4785 53.9062 -43.7012 C 53.9062 -49.1211 49.9512 -52.6367 43.8965 -52.6367 C 38.5742 -52.6367 34.0332 -49.4629 33.3984 -44.9219 C 33.3496 -44.5312 33.3008 -44.2383 33.3008 -43.8965 C 33.3008 -43.2129 33.7402 -42.7246 34.4238 -42.7246 C 35.1562 -42.7246 35.498 -43.1152 35.5957 -43.75 C 35.9375 -47.6562 39.2578 -50.5371 43.8965 -50.5371 C 48.6328 -50.5371 51.6113 -47.8516 51.6113 -43.7012 C 51.6113 -40.918 50.3418 -38.5742 47.4609 -35.4004 L 34.1797 -20.6543 C 33.8379 -20.2637 33.7402 -20.0195 33.7402 -19.5801 C 33.7402 -18.8477 34.2285 -18.3594 35.0098 -18.3594 Z"/>
  </g>
 </g>
</svg>
