<?xml version="1.0" encoding="UTF-8"?>
<!--Generator: Apple Native CoreSVG 149-->
<!DOCTYPE svg
PUBLIC "-//W3C//DTD SVG 1.1//EN"
       "http://www.w3.org/Graphics/SVG/1.1/DTD/svg11.dtd">
<svg version="1.1" xmlns="http://www.w3.org/2000/svg" xmlns:xlink="http://www.w3.org/1999/xlink" width="3300" height="2200">
 <!--glyph: "uni1002B7.medium", point size: 100.000000, font version: "Version 16.0d12e3", template writer version: "8"-->
 <g id="Notes">
  <rect height="2200" id="artboard" style="fill:white;opacity:1" width="3300" x="0" y="0"/>
  <line id="" style="fill:none;stroke:black;opacity:1;stroke-width:0.5;" x1="263" x2="3036" y1="292" y2="292"/>
  <text style="stroke:none;fill:black;font-family:-apple-system,&quot;SF Pro Display&quot;,&quot;SF Pro Text&quot;,Helvetica,sans-serif;font-weight:bold;" transform="matrix(1 0 0 1 263 322)">Weight/Scale Variations</text>
  <text style="stroke:none;fill:black;font-family:-apple-system,&quot;SF Pro Display&quot;,&quot;SF Pro Text&quot;,Helvetica,sans-serif;text-anchor:middle;" transform="matrix(1 0 0 1 559.711 322)">Ultralight</text>
  <text style="stroke:none;fill:black;font-family:-apple-system,&quot;SF Pro Display&quot;,&quot;SF Pro Text&quot;,Helvetica,sans-serif;text-anchor:middle;" transform="matrix(1 0 0 1 856.422 322)">Thin</text>
  <text style="stroke:none;fill:black;font-family:-apple-system,&quot;SF Pro Display&quot;,&quot;SF Pro Text&quot;,Helvetica,sans-serif;text-anchor:middle;" transform="matrix(1 0 0 1 1153.13 322)">Light</text>
  <text style="stroke:none;fill:black;font-family:-apple-system,&quot;SF Pro Display&quot;,&quot;SF Pro Text&quot;,Helvetica,sans-serif;text-anchor:middle;" transform="matrix(1 0 0 1 1449.84 322)">Regular</text>
  <text style="stroke:none;fill:black;font-family:-apple-system,&quot;SF Pro Display&quot;,&quot;SF Pro Text&quot;,Helvetica,sans-serif;text-anchor:middle;" transform="matrix(1 0 0 1 1746.56 322)">Medium</text>
  <text style="stroke:none;fill:black;font-family:-apple-system,&quot;SF Pro Display&quot;,&quot;SF Pro Text&quot;,Helvetica,sans-serif;text-anchor:middle;" transform="matrix(1 0 0 1 2043.27 322)">Semibold</text>
  <text style="stroke:none;fill:black;font-family:-apple-system,&quot;SF Pro Display&quot;,&quot;SF Pro Text&quot;,Helvetica,sans-serif;text-anchor:middle;" transform="matrix(1 0 0 1 2339.98 322)">Bold</text>
  <text style="stroke:none;fill:black;font-family:-apple-system,&quot;SF Pro Display&quot;,&quot;SF Pro Text&quot;,Helvetica,sans-serif;text-anchor:middle;" transform="matrix(1 0 0 1 2636.69 322)">Heavy</text>
  <text style="stroke:none;fill:black;font-family:-apple-system,&quot;SF Pro Display&quot;,&quot;SF Pro Text&quot;,Helvetica,sans-serif;text-anchor:middle;" transform="matrix(1 0 0 1 2933.4 322)">Black</text>
  <line id="" style="fill:none;stroke:black;opacity:1;stroke-width:0.5;" x1="263" x2="3036" y1="1903" y2="1903"/>
  <g id="" transform="matrix(1 0 0 1 263 1933)">
   <path d="M9.24805 0.830078C13.5547 0.830078 17.1387-2.74414 17.1387-7.05078C17.1387-11.3574 13.5449-14.9316 9.23828-14.9316C4.94141-14.9316 1.36719-11.3574 1.36719-7.05078C1.36719-2.74414 4.95117 0.830078 9.24805 0.830078ZM9.24805-0.654297C5.70312-0.654297 2.87109-3.49609 2.87109-7.05078C2.87109-10.6055 5.69336-13.4473 9.23828-13.4473C12.793-13.4473 15.6348-10.6055 15.6445-7.05078C15.6543-3.49609 12.8027-0.654297 9.24805-0.654297ZM9.22852-3.62305C9.69727-3.62305 9.9707-3.93555 9.9707-4.45312L9.9707-6.31836L12.002-6.31836C12.5-6.31836 12.832-6.57227 12.832-7.04102C12.832-7.51953 12.5195-7.7832 12.002-7.7832L9.9707-7.7832L9.9707-9.81445C9.9707-10.332 9.69727-10.6543 9.22852-10.6543C8.75977-10.6543 8.50586-10.3125 8.50586-9.81445L8.50586-7.7832L6.49414-7.7832C5.97656-7.7832 5.64453-7.51953 5.64453-7.04102C5.64453-6.57227 5.99609-6.31836 6.49414-6.31836L8.50586-6.31836L8.50586-4.45312C8.50586-3.95508 8.75977-3.62305 9.22852-3.62305Z"/>
  </g>
  <g id="" transform="matrix(1 0 0 1 281.506 1933)">
   <path d="M11.709 2.91016C17.1582 2.91016 21.6699-1.61133 21.6699-7.05078C21.6699-12.5 17.1484-17.0117 11.6992-17.0117C6.25977-17.0117 1.74805-12.5 1.74805-7.05078C1.74805-1.61133 6.26953 2.91016 11.709 2.91016ZM11.709 1.25C7.09961 1.25 3.41797-2.44141 3.41797-7.05078C3.41797-11.6602 7.08984-15.3516 11.6992-15.3516C16.3086-15.3516 20-11.6602 20.0098-7.05078C20.0195-2.44141 16.3184 1.25 11.709 1.25ZM11.6797-2.66602C12.207-2.66602 12.5098-3.01758 12.5098-3.59375L12.5098-6.23047L15.3223-6.23047C15.8691-6.23047 16.25-6.51367 16.25-7.03125C16.25-7.55859 15.8887-7.86133 15.3223-7.86133L12.5098-7.86133L12.5098-10.6836C12.5098-11.25 12.207-11.6113 11.6797-11.6113C11.1621-11.6113 10.8789-11.2305 10.8789-10.6836L10.8789-7.86133L8.07617-7.86133C7.50977-7.86133 7.13867-7.55859 7.13867-7.03125C7.13867-6.51367 7.5293-6.23047 8.07617-6.23047L10.8789-6.23047L10.8789-3.59375C10.8789-3.03711 11.1621-2.66602 11.6797-2.66602Z"/>
  </g>
  <g id="" transform="matrix(1 0 0 1 304.924 1933)">
   <path d="M14.9707 5.66406C21.9336 5.66406 27.6953-0.0976562 27.6953-7.05078C27.6953-14.0137 21.9238-19.7754 14.9609-19.7754C8.00781-19.7754 2.25586-14.0137 2.25586-7.05078C2.25586-0.0976562 8.01758 5.66406 14.9707 5.66406ZM14.9707 3.84766C8.93555 3.84766 4.08203-1.01562 4.08203-7.05078C4.08203-13.0957 8.92578-17.9492 14.9609-17.9492C21.0059-17.9492 25.8594-13.0957 25.8691-7.05078C25.8789-1.01562 21.0156 3.84766 14.9707 3.84766ZM14.9414-1.38672C15.5176-1.38672 15.8594-1.77734 15.8594-2.38281L15.8594-6.13281L19.7754-6.13281C20.3711-6.13281 20.7812-6.46484 20.7812-7.02148C20.7812-7.59766 20.3906-7.93945 19.7754-7.93945L15.8594-7.93945L15.8594-11.8652C15.8594-12.4805 15.5176-12.8711 14.9414-12.8711C14.375-12.8711 14.0527-12.4609 14.0527-11.8652L14.0527-7.93945L10.1465-7.93945C9.53125-7.93945 9.13086-7.59766 9.13086-7.02148C9.13086-6.46484 9.55078-6.13281 10.1465-6.13281L14.0527-6.13281L14.0527-2.38281C14.0527-1.79688 14.375-1.38672 14.9414-1.38672Z"/>
  </g>
  <text style="stroke:none;fill:black;font-family:-apple-system,&quot;SF Pro Display&quot;,&quot;SF Pro Text&quot;,Helvetica,sans-serif;font-weight:bold;" transform="matrix(1 0 0 1 263 1953)">Design Variations</text>
  <text style="stroke:none;fill:black;font-family:-apple-system,&quot;SF Pro Display&quot;,&quot;SF Pro Text&quot;,Helvetica,sans-serif;" transform="matrix(1 0 0 1 263 1971)">Symbols are supported in up to nine weights and three scales.</text>
  <text style="stroke:none;fill:black;font-family:-apple-system,&quot;SF Pro Display&quot;,&quot;SF Pro Text&quot;,Helvetica,sans-serif;" transform="matrix(1 0 0 1 263 1989)">For optimal layout with text and other symbols, vertically align</text>
  <text style="stroke:none;fill:black;font-family:-apple-system,&quot;SF Pro Display&quot;,&quot;SF Pro Text&quot;,Helvetica,sans-serif;" transform="matrix(1 0 0 1 263 2007)">symbols with the adjacent text.</text>
  <line id="" style="fill:none;stroke:#00AEEF;stroke-width:0.5;opacity:1.0;" x1="776" x2="776" y1="1919" y2="1933"/>
  <g id="" transform="matrix(1 0 0 1 776 1933)">
   <path d="M3.31055 0.126953C3.82812 0.126953 4.08203-0.0683594 4.26758-0.605469L5.52734-4.0625L11.2891-4.0625L12.5488-0.605469C12.7344-0.0683594 12.9883 0.126953 13.4961 0.126953C14.0137 0.126953 14.3457-0.185547 14.3457-0.673828C14.3457-0.839844 14.3164-0.986328 14.2383-1.20117L9.6582-13.3887C9.43359-13.9941 9.0332-14.2871 8.4082-14.2871C7.80273-14.2871 7.39258-13.9941 7.17773-13.3984L2.59766-1.19141C2.51953-0.976562 2.49023-0.830078 2.49023-0.664062C2.49023-0.175781 2.80273 0.126953 3.31055 0.126953ZM6.00586-5.53711L8.37891-12.1094L8.42773-12.1094L10.8008-5.53711Z"/>
  </g>
  <line id="" style="fill:none;stroke:#00AEEF;stroke-width:0.5;opacity:1.0;" x1="792.836" x2="792.836" y1="1919" y2="1933"/>
  <text style="stroke:none;fill:black;font-family:-apple-system,&quot;SF Pro Display&quot;,&quot;SF Pro Text&quot;,Helvetica,sans-serif;font-weight:bold;" transform="matrix(1 0 0 1 776 1953)">Margins</text>
  <text style="stroke:none;fill:black;font-family:-apple-system,&quot;SF Pro Display&quot;,&quot;SF Pro Text&quot;,Helvetica,sans-serif;" transform="matrix(1 0 0 1 776 1971)">Leading and trailing margins on the left and right side of each symbol</text>
  <text style="stroke:none;fill:black;font-family:-apple-system,&quot;SF Pro Display&quot;,&quot;SF Pro Text&quot;,Helvetica,sans-serif;" transform="matrix(1 0 0 1 776 1989)">can be adjusted by modifying the x-location of the margin guidelines.</text>
  <text style="stroke:none;fill:black;font-family:-apple-system,&quot;SF Pro Display&quot;,&quot;SF Pro Text&quot;,Helvetica,sans-serif;" transform="matrix(1 0 0 1 776 2007)">Modifications are automatically applied proportionally to all</text>
  <text style="stroke:none;fill:black;font-family:-apple-system,&quot;SF Pro Display&quot;,&quot;SF Pro Text&quot;,Helvetica,sans-serif;" transform="matrix(1 0 0 1 776 2025)">scales and weights.</text>
  <g id="" transform="matrix(1 0 0 1 1289 1933)">
   <path d="M2.8418 1.86523L4.54102 3.57422C5.40039 4.44336 6.38672 4.38477 7.31445 3.35938L17.4902-7.85156C17.7539-7.76367 18.0273-7.7832 18.3398-7.8418L19.4043-8.03711L20.0684-7.36328L20.0293-6.80664C19.9902-6.30859 20.1172-5.92773 20.6055-5.44922L21.3672-4.70703C21.8457-4.22852 22.4609-4.19922 22.9297-4.66797L25.8398-7.58789C26.3086-8.05664 26.2891-8.65234 25.8105-9.13086L25.0391-9.89258C24.5605-10.3711 24.1895-10.5273 23.7109-10.4883L23.1348-10.4395L22.4902-11.0742L22.7344-12.1973C22.8613-12.7637 22.7051-13.2031 22.1191-13.7891L19.9219-15.9766C16.582-19.2969 12.1484-19.2188 9.25781-16.3281C8.83789-15.918 8.80859-15.3418 9.04297-14.9512C9.27734-14.5898 9.73633-14.3555 10.3809-14.5215C11.8457-14.8633 13.3691-14.9219 14.7949-13.9844L14.209-12.5293C14.0137-12.0508 13.9844-11.6504 14.1113-11.2891L3.04688-0.898438C2.06055 0.0195312 1.98242 0.996094 2.8418 1.86523ZM10.752-15.957C13.1836-17.7344 16.4746-17.4316 18.7012-15.2051L21.1328-12.793C21.3672-12.5586 21.4062-12.373 21.3379-12.0312L21.0156-10.5469L22.5195-9.0625L23.5059-9.12109C23.7598-9.13086 23.8379-9.11133 24.0332-8.91602L24.6094-8.33984L22.168-5.89844L21.5918-6.47461C21.3965-6.66992 21.3672-6.74805 21.377-7.01172L21.4453-7.98828L19.9512-9.47266L18.4277-9.21875C18.1055-9.15039 17.959-9.17969 17.7148-9.41406L15.7129-11.416C15.459-11.6504 15.4297-11.8164 15.5859-12.1875L16.4648-14.2773C14.9023-15.7324 12.8711-16.3574 10.8398-15.7617C10.6836-15.7227 10.625-15.8496 10.752-15.957ZM5.27344 2.30469L4.10156 1.14258C3.63281 0.683594 3.74023 0.341797 4.14062-0.0195312L14.9512-10.1953L16.416-8.71094L6.42578 2.27539C6.07422 2.67578 5.74219 2.77344 5.27344 2.30469Z"/>
  </g>
  <text style="stroke:none;fill:black;font-family:-apple-system,&quot;SF Pro Display&quot;,&quot;SF Pro Text&quot;,Helvetica,sans-serif;font-weight:bold;" transform="matrix(1 0 0 1 1289 1953)">Exporting</text>
  <text style="stroke:none;fill:black;font-family:-apple-system,&quot;SF Pro Display&quot;,&quot;SF Pro Text&quot;,Helvetica,sans-serif;" transform="matrix(1 0 0 1 1289 1971)">Symbols should be outlined when exporting to ensure the</text>
  <text style="stroke:none;fill:black;font-family:-apple-system,&quot;SF Pro Display&quot;,&quot;SF Pro Text&quot;,Helvetica,sans-serif;" transform="matrix(1 0 0 1 1289 1989)">design is preserved when submitting to Xcode.</text>
  <text id="template-version" style="stroke:none;fill:black;font-family:-apple-system,&quot;SF Pro Display&quot;,&quot;SF Pro Text&quot;,Helvetica,sans-serif;text-anchor:end;" transform="matrix(1 0 0 1 3036 1933)">Template v.2.0</text>
  <text style="stroke:none;fill:black;font-family:-apple-system,&quot;SF Pro Display&quot;,&quot;SF Pro Text&quot;,Helvetica,sans-serif;text-anchor:end;" transform="matrix(1 0 0 1 3036 1951)">Requires Xcode 12 or greater</text>
  <text style="stroke:none;fill:black;font-family:-apple-system,&quot;SF Pro Display&quot;,&quot;SF Pro Text&quot;,Helvetica,sans-serif;text-anchor:end;" transform="matrix(1 0 0 1 3036 1969)">Generated from heart.slash.fill</text>
  <text style="stroke:none;fill:black;font-family:-apple-system,&quot;SF Pro Display&quot;,&quot;SF Pro Text&quot;,Helvetica,sans-serif;text-anchor:end;" transform="matrix(1 0 0 1 3036 1987)">Typeset at 100 points</text>
  <text style="stroke:none;fill:black;font-family:-apple-system,&quot;SF Pro Display&quot;,&quot;SF Pro Text&quot;,Helvetica,sans-serif;" transform="matrix(1 0 0 1 263 726)">Small</text>
  <text style="stroke:none;fill:black;font-family:-apple-system,&quot;SF Pro Display&quot;,&quot;SF Pro Text&quot;,Helvetica,sans-serif;" transform="matrix(1 0 0 1 263 1156)">Medium</text>
  <text style="stroke:none;fill:black;font-family:-apple-system,&quot;SF Pro Display&quot;,&quot;SF Pro Text&quot;,Helvetica,sans-serif;" transform="matrix(1 0 0 1 263 1586)">Large</text>
 </g>
 <g id="Guides">
  <g id="H-reference" style="fill:#27AAE1;stroke:none;" transform="matrix(1 0 0 1 339 696)">
   <path d="M0.976562 0L3.66211 0L12.9883-24.4629L45.752-24.4629L55.127 0L57.7637 0L30.6152-70.459L28.125-70.459ZM29.3457-67.1387L29.4434-67.1387L44.873-26.709L13.8672-26.709Z"/>
  </g>
  <line id="Baseline-S" style="fill:none;stroke:#27AAE1;opacity:1;stroke-width:0.5;" x1="263" x2="3036" y1="696" y2="696"/>
  <line id="Capline-S" style="fill:none;stroke:#27AAE1;opacity:1;stroke-width:0.5;" x1="263" x2="3036" y1="625.541" y2="625.541"/>
  <g id="H-reference" style="fill:#27AAE1;stroke:none;" transform="matrix(1 0 0 1 339 1126)">
   <path d="M0.976562 0L3.66211 0L12.9883-24.4629L45.752-24.4629L55.127 0L57.7637 0L30.6152-70.459L28.125-70.459ZM29.3457-67.1387L29.4434-67.1387L44.873-26.709L13.8672-26.709Z"/>
  </g>
  <line id="Baseline-M" style="fill:none;stroke:#27AAE1;opacity:1;stroke-width:0.5;" x1="263" x2="3036" y1="1126" y2="1126"/>
  <line id="Capline-M" style="fill:none;stroke:#27AAE1;opacity:1;stroke-width:0.5;" x1="263" x2="3036" y1="1055.54" y2="1055.54"/>
  <g id="H-reference" style="fill:#27AAE1;stroke:none;" transform="matrix(1 0 0 1 339 1556)">
   <path d="M0.976562 0L3.66211 0L12.9883-24.4629L45.752-24.4629L55.127 0L57.7637 0L30.6152-70.459L28.125-70.459ZM29.3457-67.1387L29.4434-67.1387L44.873-26.709L13.8672-26.709Z"/>
  </g>
  <line id="Baseline-L" style="fill:none;stroke:#27AAE1;opacity:1;stroke-width:0.5;" x1="263" x2="3036" y1="1556" y2="1556"/>
  <line id="Capline-L" style="fill:none;stroke:#27AAE1;opacity:1;stroke-width:0.5;" x1="263" x2="3036" y1="1485.54" y2="1485.54"/>
  <line id="left-margin" style="fill:none;stroke:#00AEEF;stroke-width:0.5;opacity:1.0;" x1="1389.3" x2="1389.3" y1="1030.79" y2="1150.12"/>
  <line id="right-margin" style="fill:none;stroke:#00AEEF;stroke-width:0.5;opacity:1.0;" x1="1510.39" x2="1510.39" y1="1030.79" y2="1150.12"/>
 </g>
 <g id="Symbols">
  <g id="Black-L" transform="matrix(1 0 0 1 2851.56 1556)">
   <path d="M130.908 25.9277C133.154 28.125 136.865 28.1738 139.062 25.9277C141.211 23.6816 141.309 20.0684 139.062 17.7734L19.4824-101.709C17.1875-103.955 13.5254-103.955 11.2793-101.709C9.08203-99.5117 9.08203-95.752 11.2793-93.5547ZM149.316-52.5879C149.316-78.9062 130.908-96.1426 109.766-96.1426C96.4844-96.1426 87.3047-88.8672 81.8359-78.6621C76.3672-88.8672 67.1875-96.1426 53.9062-96.1426C49.2188-96.1426 44.7266-95.3613 40.4297-93.7012L128.369-5.81055C141.65-20.8496 149.316-36.6699 149.316-52.5879ZM81.8359 29.5898C84.4727 29.5898 88.3789 27.2461 92.1875 24.707C97.168 21.3867 101.953 18.0176 106.445 14.502L18.6523-73.1934C15.918-67.2363 14.3555-60.3027 14.3555-52.5879C14.3555-25.293 37.1582 2.00195 71.4844 24.707C75.293 27.2461 79.1992 29.5898 81.8359 29.5898Z"/>
  </g>
  <g id="Heavy-L" transform="matrix(1 0 0 1 2556 1556)">
   <path d="M128.662 24.4141C130.811 26.5137 134.229 26.5137 136.279 24.4141C138.33 22.3145 138.379 18.9453 136.279 16.8457L18.8965-100.488C16.7969-102.588 13.3301-102.588 11.2305-100.488C9.17969-98.4375 9.17969-94.9219 11.2305-92.8711ZM146.875-52.7344C146.875-77.9297 129.248-94.8242 108.447-94.8242C95.459-94.8242 86.1816-87.6465 80.7129-77.3926C75.2441-87.6465 65.918-94.8242 52.9297-94.8242C48.1934-94.8242 43.6523-93.9453 39.4531-92.2363L125.635-6.10352C139.062-21.0449 146.875-36.8164 146.875-52.7344ZM80.7129 28.125C82.959 28.125 86.377 26.1719 89.5508 24.0234C94.9707 20.459 100.146 16.8457 104.932 13.0859L18.8965-72.9492C16.1133-67.0898 14.502-60.3027 14.502-52.7344C14.502-25.6348 37.3535 1.36719 71.8262 24.0234C75 26.1719 78.418 28.125 80.7129 28.125Z"/>
  </g>
  <g id="Bold-L" transform="matrix(1 0 0 1 2260.56 1556)">
   <path d="M126.172 22.7539C128.125 24.6582 131.299 24.707 133.203 22.7539C135.107 20.8008 135.156 17.7246 133.203 15.7715L18.2617-99.1211C16.3574-101.025 13.1348-101.074 11.1816-99.1211C9.32617-97.2168 9.32617-93.9941 11.1816-92.0898ZM144.092-52.8809C144.092-76.9043 127.344-93.3105 106.982-93.3105C94.3359-93.3105 84.9121-86.2793 79.3945-75.9766C73.9258-86.2305 64.4531-93.3105 51.8066-93.3105C47.0215-93.3105 42.4805-92.3828 38.3301-90.625L122.51-6.34766C136.133-21.2891 144.092-37.0117 144.092-52.8809ZM79.3945 26.5137C81.2988 26.5137 84.1309 24.9512 86.6211 23.291C92.5293 19.4336 98.0957 15.4785 103.223 11.4258L19.1406-72.6074C16.3574-66.9434 14.7461-60.2539 14.7461-52.8809C14.7461-25.9766 37.5488 0.683594 72.168 23.291C74.707 24.9512 77.4902 26.5137 79.3945 26.5137Z"/>
  </g>
  <g id="Semibold-L" transform="matrix(1 0 0 1 1964.75 1556)">
   <path d="M124.463 21.6309C126.318 23.4375 129.297 23.4375 131.055 21.6309C132.861 19.7754 132.91 16.8457 131.055 15.0391L17.8223-98.1445C16.0156-99.9512 13.0371-100 11.1816-98.1445C9.42383-96.3867 9.42383-93.3105 11.1816-91.5527ZM142.139-52.9785C142.139-76.1719 126.074-92.2363 106.006-92.2363C93.6035-92.2363 84.0332-85.3516 78.5156-75.0488C73.0469-85.3027 63.4766-92.2363 51.0742-92.2363C46.2402-92.2363 41.6992-91.3086 37.5488-89.502L120.41-6.54297C134.131-21.4355 142.139-37.1094 142.139-52.9785ZM78.5156 25.3906C80.1758 25.3906 82.5684 24.1211 84.6191 22.8027C90.8203 18.75 96.6797 14.5996 102.051 10.3027L19.3359-72.4121C16.5039-66.8457 14.8926-60.2539 14.8926-52.9785C14.8926-26.2207 37.6953 0.195312 72.4121 22.8027C74.4629 24.1211 76.8555 25.3906 78.5156 25.3906Z"/>
  </g>
  <g id="Medium-L" transform="matrix(1 0 0 1 1668.7 1556)">
   <path d="M123.145 20.752C124.902 22.4609 127.783 22.5098 129.443 20.752C131.152 18.9941 131.201 16.2109 129.443 14.4531L17.4805-97.4609C15.7715-99.1699 12.9395-99.2188 11.1328-97.4609C9.47266-95.752 9.47266-92.8223 11.1328-91.1621ZM140.723-53.0273C140.723-75.6348 125.098-91.4551 105.225-91.4551C93.0176-91.4551 83.3496-84.6191 77.832-74.3164C72.3633-84.5703 62.6953-91.4551 50.4883-91.4551C45.6543-91.4551 41.0645-90.4785 36.9629-88.6719L118.799-6.73828C132.617-21.582 140.723-37.207 140.723-53.0273ZM77.832 24.5117C79.2969 24.5117 81.3965 23.4863 83.1055 22.4121C89.5508 18.2129 95.6055 13.8672 101.172 9.47266L19.4336-72.2168C16.6504-66.748 14.9902-60.2051 14.9902-53.0273C14.9902-26.3672 37.793-0.146484 72.6074 22.4121C74.3164 23.4863 76.416 24.5117 77.832 24.5117Z"/>
  </g>
  <g id="Regular-L" transform="matrix(1 0 0 1 1372.87 1556)">
   <path d="M121.484 19.6289C123.096 21.2402 125.781 21.2402 127.344 19.6289C128.955 17.9688 129.004 15.332 127.344 13.7207L17.0898-96.5332C15.4785-98.0957 12.793-98.1934 11.1328-96.5332C9.57031-94.9219 9.57031-92.1875 11.1328-90.625ZM138.818-53.125C138.818-74.9023 123.828-90.4297 104.248-90.4297C92.2363-90.4297 82.5195-83.6914 77.002-73.3398C71.5332-83.6426 61.7188-90.4297 49.707-90.4297C44.873-90.4297 40.2832-89.4531 36.1816-87.5488L116.699-6.93359C130.615-21.7285 138.818-37.3047 138.818-53.125ZM77.002 23.4375C78.1738 23.4375 79.8828 22.6562 81.1035 21.875C87.8418 17.4805 94.1895 12.9883 100 8.34961L19.6289-72.0215C16.7969-66.6016 15.1367-60.2051 15.1367-53.125C15.1367-26.6113 37.9395-0.634766 72.8516 21.875C74.0723 22.6562 75.7812 23.4375 77.002 23.4375Z"/>
  </g>
  <g id="Light-L" transform="matrix(1 0 0 1 1077.72 1556)">
   <path d="M118.896 17.5293C120.166 18.7988 122.217 18.7988 123.438 17.5293C124.756 16.2109 124.707 14.209 123.438 12.9395L15.6738-94.8242C14.4531-96.0449 12.3535-96.1426 11.084-94.8242C9.81445-93.6035 9.81445-91.5039 11.084-90.2344ZM136.23-53.125C136.23-74.2676 121.631-89.4043 102.344-89.4043C90.7715-89.4043 80.6641-82.7637 75.3906-72.5586C70.166-82.7637 60.0098-89.4043 48.4375-89.4043C43.1152-89.4043 38.1348-88.2324 33.7891-85.9863L112.988-6.68945C127.49-21.582 136.23-37.2559 136.23-53.125ZM75.3906 21.9238C76.4648 21.9238 77.8809 21.2891 78.9062 20.6543C85.9375 16.0156 92.5293 11.2793 98.5352 6.49414L19.5312-72.5098C16.4062-67.041 14.5996-60.4492 14.5996-53.125C14.5996-27.0996 37.7441-1.66016 71.875 20.6543C72.9492 21.2891 74.3652 21.9238 75.3906 21.9238Z"/>
  </g>
  <g id="Thin-L" transform="matrix(1 0 0 1 783.082 1556)">
   <path d="M115.479 14.7461C116.26 15.5273 117.529 15.5273 118.311 14.7461C119.141 13.916 119.092 12.7441 118.311 11.9629L13.7695-92.5781C13.0859-93.2617 11.8164-93.4082 10.9863-92.5781C10.2051-91.7969 10.2051-90.5273 10.9863-89.7461ZM132.812-53.125C132.812-73.4375 118.75-88.0371 99.9023-88.0371C88.8672-88.0371 78.2227-81.5918 73.3398-71.4844C68.4082-81.5918 57.7637-88.0371 46.7773-88.0371C40.8203-88.0371 35.3027-86.6211 30.6152-83.9355L108.105-6.39648C123.34-21.3867 132.812-37.1582 132.812-53.125ZM73.3398 19.9219C74.1699 19.9219 75.2441 19.4824 76.0254 18.9941C83.3496 14.0625 90.2832 9.08203 96.5332 4.00391L19.4336-73.1445C15.918-67.627 13.8672-60.7422 13.8672-53.125C13.8672-27.7832 37.5488-2.97852 70.6055 18.9941C71.4355 19.4824 72.4609 19.9219 73.3398 19.9219Z"/>
  </g>
  <g id="Ultralight-L" transform="matrix(1 0 0 1 487.445 1556)">
   <path d="M113.77 13.3301C114.258 13.8672 115.137 13.8672 115.674 13.3301C116.26 12.7441 116.162 11.9629 115.674 11.4258L12.793-91.4062C12.3535-91.8457 11.5234-92.041 10.8887-91.4062C10.4004-90.8691 10.4004-90.0391 10.8887-89.502ZM131.055-53.125C131.055-72.998 117.285-87.3535 98.6328-87.3535C87.8906-87.3535 77.002-80.957 72.2656-70.9473C67.5293-80.957 56.6406-87.3535 45.8984-87.3535C39.6484-87.3535 33.8867-85.791 28.9551-82.8613L105.566-6.25C121.191-21.2891 131.055-37.1094 131.055-53.125ZM72.2656 18.9453C72.998 18.9453 73.877 18.5547 74.5605 18.1152C82.0312 13.0859 89.1113 7.91016 95.5078 2.73438L19.3359-73.4863C15.625-67.9199 13.4766-60.9375 13.4766-53.125C13.4766-28.125 37.4023-3.66211 69.9707 18.1152C70.6543 18.5547 71.5332 18.9453 72.2656 18.9453Z"/>
  </g>
  <g id="Black-M" transform="matrix(1 0 0 1 2869.26 1126)">
   <path d="M103.076 13.0371C104.834 14.7461 107.715 14.7949 109.375 13.0371C111.084 11.3281 111.133 8.49609 109.375 6.73828L15.0879-87.5C13.3301-89.209 10.4492-89.209 8.74023-87.5C7.03125-85.791 7.03125-82.8613 8.74023-81.2012ZM117.725-48.5352C117.725-69.9707 102.539-83.7402 85.8398-83.7402C75.3418-83.7402 68.2129-77.9785 64.1113-70.1172C60.0098-77.9785 52.9297-83.7402 42.4316-83.7402C38.623-83.7402 34.9121-83.0566 31.3965-81.6406L101.221-11.9629C111.572-23.6816 117.725-36.1328 117.725-48.5352ZM64.1113 16.2109C66.5039 16.2109 70.1172 13.916 73.7793 11.4258C77.2461 9.08203 80.5664 6.73828 83.7402 4.24805L14.1113-65.2832C11.8652-60.498 10.5469-54.834 10.5469-48.5352C10.5469-27.3926 28.4668-6.05469 54.4434 11.4258C58.1543 13.916 61.7188 16.2109 64.1113 16.2109Z"/>
  </g>
  <g id="Heavy-M" transform="matrix(1 0 0 1 2573.41 1126)">
   <path d="M101.318 11.9629C103.027 13.623 105.762 13.6719 107.373 11.9629C109.033 10.3027 109.082 7.56836 107.373 5.9082L14.8438-86.5723C13.1348-88.2812 10.4004-88.2812 8.69141-86.5723C7.08008-84.9609 7.08008-82.1289 8.69141-80.5176ZM115.674-48.6816C115.674-69.1406 101.27-82.5195 84.8633-82.5195C74.6094-82.5195 67.4805-76.9043 63.2812-68.9941C59.1309-76.8555 51.9531-82.5195 41.6992-82.5195C37.9395-82.5195 34.3262-81.8359 30.957-80.4688L99.1699-12.3047C109.57-23.9746 115.674-36.2793 115.674-48.6816ZM63.2812 14.9902C65.332 14.9902 68.457 13.0859 71.4844 11.0352C75.3418 8.44727 79.0527 5.85938 82.4707 3.17383L14.4043-64.8438C12.207-60.2051 10.8887-54.7363 10.8887-48.6816C10.8887-27.5879 28.7109-6.49414 55.0781 11.0352C58.1055 13.0859 61.2305 14.9902 63.2812 14.9902Z"/>
  </g>
  <g id="Bold-M" transform="matrix(1 0 0 1 2277.65 1126)">
   <path d="M99.3652 10.7422C100.977 12.3535 103.613 12.3535 105.176 10.7422C106.689 9.13086 106.738 6.54297 105.176 4.93164L14.5508-85.5957C12.9395-87.207 10.3027-87.207 8.69141-85.5957C7.12891-84.0332 7.12891-81.3477 8.69141-79.7852ZM113.379-48.8281C113.379-68.1641 99.8535-81.1523 83.8379-81.1523C73.8281-81.1523 66.6016-75.6348 62.3535-67.6758C58.1055-75.6348 50.8789-81.1523 40.8691-81.1523C37.207-81.1523 33.6914-80.4688 30.4199-79.1504L96.875-12.6953C107.324-24.2676 113.379-36.5234 113.379-48.8281ZM62.3535 13.623C64.0625 13.623 66.6016 12.1582 68.9453 10.5957C73.2422 7.76367 77.2949 4.93164 81.0547 1.95312L14.6973-64.4043C12.5488-59.9121 11.3281-54.6387 11.3281-48.8281C11.3281-27.832 28.9551-6.93359 55.7129 10.5957C58.1055 12.1582 60.6445 13.623 62.3535 13.623Z"/>
  </g>
  <g id="Semibold-M" transform="matrix(1 0 0 1 1981.57 1126)">
   <path d="M97.998 9.91211C99.5605 11.4746 102.1 11.4746 103.613 9.91211C105.127 8.34961 105.176 5.85938 103.613 4.29688L14.3555-84.9121C12.8418-86.4258 10.2539-86.4746 8.69141-84.9121C7.17773-83.3984 7.17773-80.7617 8.69141-79.248ZM111.816-48.9258C111.816-67.4805 98.877-80.2246 83.1055-80.2246C73.2422-80.2246 66.0156-74.8047 61.6699-66.7969C57.4219-74.7559 50.0977-80.2246 40.2832-80.2246C36.6699-80.2246 33.2031-79.541 30.0293-78.2715L95.3125-12.9395C105.762-24.5117 111.816-36.6211 111.816-48.9258ZM61.6699 12.6953C63.1348 12.6953 65.2832 11.5234 67.1875 10.3027C71.7773 7.32422 76.0742 4.24805 80.0781 1.12305L14.8926-64.0625C12.793-59.668 11.5723-54.5898 11.5723-48.9258C11.5723-27.9785 29.1504-7.27539 56.2012 10.3027C58.0566 11.5234 60.2539 12.6953 61.6699 12.6953Z"/>
  </g>
  <g id="Medium-M" transform="matrix(1 0 0 1 1685.35 1126)">
   <path d="M96.9238 9.27734C98.4863 10.791 100.977 10.791 102.441 9.27734C103.906 7.76367 103.955 5.32227 102.441 3.80859L14.209-84.375C12.6953-85.8887 10.2051-85.8887 8.69141-84.375C7.22656-82.9102 7.22656-80.3711 8.69141-78.8574ZM110.596-48.9746C110.596-66.9922 98.1445-79.4922 82.5684-79.4922C72.8516-79.4922 65.5762-74.1211 61.1816-66.1133C56.8848-74.1211 49.5605-79.4922 39.8438-79.4922C36.2793-79.4922 32.8613-78.8574 29.7852-77.5879L94.0918-13.1348C104.59-24.6582 110.596-36.7676 110.596-48.9746ZM61.1816 12.0117C62.4512 12.0117 64.3066 11.0352 65.8203 10.0586C70.6543 6.93359 75.1465 3.75977 79.3457 0.488281L15.0391-63.8184C12.9883-59.5215 11.7676-54.541 11.7676-48.9746C11.7676-28.125 29.2969-7.51953 56.543 10.0586C58.0566 11.0352 59.9121 12.0117 61.1816 12.0117Z"/>
  </g>
  <g id="Regular-M" transform="matrix(1 0 0 1 1389.3 1126)">
   <path d="M95.6055 8.44727C97.0703 9.91211 99.5117 9.91211 100.928 8.44727C102.344 6.98242 102.393 4.58984 100.928 3.125L14.0625-83.6914C12.5977-85.1562 10.1562-85.1562 8.69141-83.6914C7.22656-82.2754 7.22656-79.7852 8.69141-78.3691ZM109.033-49.0723C109.033-66.3574 97.168-78.5645 81.8359-78.5645C72.3145-78.5645 64.9902-73.291 60.5469-65.2344C56.2012-73.2422 48.7793-78.5645 39.2578-78.5645C35.7422-78.5645 32.4219-77.9297 29.3945-76.6602L92.5293-13.4277C103.027-24.8535 109.033-36.8652 109.033-49.0723ZM60.5469 11.084C61.5723 11.084 63.0371 10.4004 64.1113 9.76562C69.1895 6.49414 73.9746 3.07617 78.3691-0.390625L15.2832-63.4766C13.2324-59.3262 12.0605-54.4434 12.0605-49.0723C12.0605-28.2715 29.4922-7.8125 57.0312 9.76562C58.0566 10.4004 59.5215 11.084 60.5469 11.084Z"/>
  </g>
  <g id="Light-M" transform="matrix(1 0 0 1 1094 1126)">
   <path d="M93.3105 6.5918C94.4336 7.71484 96.2891 7.71484 97.4121 6.5918C98.584 5.41992 98.584 3.61328 97.4121 2.44141L12.7441-82.1777C11.6699-83.3008 9.76562-83.3496 8.59375-82.1777C7.4707-81.0547 7.4707-79.1504 8.59375-78.0273ZM106.738-49.0723C106.738-65.7715 95.2148-77.6855 80.1758-77.6855C70.9961-77.6855 63.3301-72.5098 59.1309-64.502C54.9805-72.4609 47.2656-77.6855 38.1348-77.6855C34.1797-77.6855 30.5176-76.8555 27.2461-75.293L89.209-13.2324C100.195-24.7559 106.738-36.8164 106.738-49.0723ZM59.1309 9.7168C60.0098 9.7168 61.2793 9.17969 62.1582 8.64258C67.4316 5.12695 72.4609 1.5625 77.002-2.05078L15.1855-63.916C12.8906-59.7168 11.5723-54.6387 11.5723-49.0723C11.5723-28.7109 29.3457-8.74023 56.1523 8.64258C57.0312 9.17969 58.252 9.7168 59.1309 9.7168Z"/>
  </g>
  <g id="Thin-M" transform="matrix(1 0 0 1 799.147 1126)">
   <path d="M90.2344 4.10156C90.9668 4.83398 92.0898 4.83398 92.7734 4.10156C93.5547 3.36914 93.5059 2.24609 92.7734 1.5625L11.084-80.127C10.4004-80.8105 9.27734-80.9082 8.49609-80.127C7.8125-79.4434 7.8125-78.2715 8.49609-77.5879ZM103.662-49.0723C103.662-65.0391 92.627-76.4648 77.9297-76.4648C69.2871-76.4648 61.1816-71.4355 57.2754-63.5742C53.418-71.3867 45.2637-76.4648 36.6211-76.4648C32.1289-76.4648 27.9785-75.3906 24.4141-73.3887L84.8145-12.9395C96.4844-24.5605 103.662-36.7188 103.662-49.0723ZM57.2754 7.95898C58.0078 7.95898 58.8867 7.56836 59.5703 7.12891C65.1367 3.41797 70.459-0.439453 75.2441-4.29688L15.0879-64.4531C12.4512-60.2051 10.8887-54.9316 10.8887-49.0723C10.8887-29.2969 29.1504-9.96094 55.0293 7.12891C55.6641 7.56836 56.5918 7.95898 57.2754 7.95898Z"/>
  </g>
  <g id="Ultralight-M" transform="matrix(1 0 0 1 503.388 1126)">
   <path d="M88.6719 2.83203C89.1602 3.32031 89.9414 3.32031 90.4297 2.83203C90.9668 2.29492 90.918 1.5625 90.4297 1.12305L10.2051-79.1016C9.81445-79.541 9.0332-79.6387 8.49609-79.1016C8.00781-78.6133 8.00781-77.832 8.49609-77.3926ZM102.1-49.0723C102.1-64.6484 91.3086-75.8301 76.8066-75.8301C68.4082-75.8301 60.0586-70.8496 56.3477-63.0859C52.5879-70.8496 44.2383-75.8301 35.8398-75.8301C31.0547-75.8301 26.709-74.6582 22.9492-72.4609L82.5684-12.793C94.5801-24.4629 102.1-36.6699 102.1-49.0723ZM56.3477 7.03125C56.9336 7.03125 57.666 6.73828 58.252 6.39648C63.9648 2.49023 69.3848-1.41602 74.3652-5.41992L15.0391-64.7461C12.207-60.4492 10.5469-55.0781 10.5469-49.0723C10.5469-29.5898 29.0527-10.5469 54.4434 6.39648C54.9805 6.73828 55.7129 7.03125 56.3477 7.03125Z"/>
  </g>
  <g id="Black-S" transform="matrix(1 0 0 1 2883.2 696)">
   <path d="M80.6641 2.53906C82.0312 3.85742 84.2773 3.90625 85.5957 2.53906C86.9141 1.17188 86.9629-1.02539 85.5957-2.39258L11.8164-76.123C10.4492-77.4902 8.20312-77.4902 6.83594-76.123C5.51758-74.8047 5.51758-72.5098 6.83594-71.1914ZM92.0898-45.6543C92.0898-62.4023 80.2734-73.1445 67.1875-73.1445C58.9844-73.1445 53.418-68.6523 50.1953-62.5C46.9727-68.6523 41.4062-73.1445 33.2031-73.1445C30.2246-73.1445 27.3438-72.6074 24.6094-71.5332L79.1992-17.041C87.3047-26.2207 92.0898-35.9375 92.0898-45.6543ZM50.1953 4.98047C52.0508 4.98047 54.834 3.22266 57.666 1.31836C60.4004-0.537109 63.0371-2.39258 65.5273-4.3457L11.084-58.7402C9.32617-54.9805 8.30078-50.5859 8.30078-45.6543C8.30078-29.1016 22.3145-12.4023 42.7246 1.31836C45.5566 3.22266 48.3398 4.98047 50.1953 4.98047Z"/>
  </g>
  <g id="Heavy-S" transform="matrix(1 0 0 1 2586.98 696)">
   <path d="M79.5898 1.9043C80.9082 3.22266 83.1543 3.27148 84.4727 1.9043C85.7422 0.585938 85.791-1.61133 84.4727-2.97852L11.7676-75.5859C10.4004-76.9531 8.20312-76.9531 6.83594-75.5859C5.51758-74.3164 5.51758-72.0215 6.83594-70.7031ZM90.7715-45.752C90.7715-61.8164 79.541-72.3145 66.6504-72.3145C58.5938-72.3145 53.0273-67.9199 49.707-61.6699C46.3867-67.8711 40.8203-72.3145 32.7637-72.3145C29.8828-72.3145 27.0996-71.8262 24.4629-70.8008L77.9785-17.334C86.084-26.4648 90.7715-36.084 90.7715-45.752ZM49.707 4.19922C51.3184 4.19922 53.7598 2.73438 56.1523 1.12305C59.1309-0.878906 62.0117-2.88086 64.6973-4.98047L11.2793-58.3496C9.61914-54.7363 8.64258-50.4883 8.64258-45.752C8.64258-29.1992 22.5098-12.5977 43.2617 1.12305C45.6543 2.73438 48.0957 4.19922 49.707 4.19922Z"/>
  </g>
  <g id="Bold-S" transform="matrix(1 0 0 1 2290.81 696)">
   <path d="M78.3203 1.2207C79.6875 2.53906 81.8848 2.58789 83.1543 1.2207C84.4727-0.0976562 84.5215-2.29492 83.1543-3.61328L11.7188-75.0488C10.4004-76.3672 8.1543-76.3672 6.83594-75.0488C5.51758-73.7305 5.51758-71.4844 6.83594-70.166ZM89.3066-45.8984C89.3066-61.1328 78.6621-71.3867 66.0645-71.3867C58.1055-71.3867 52.5391-67.041 49.1699-60.791C45.8008-67.041 40.1855-71.3867 32.2754-71.3867C29.4922-71.3867 26.8066-70.8984 24.3652-69.9707L76.6602-17.627C84.7168-26.709 89.3066-36.2305 89.3066-45.8984ZM49.1699 3.32031C50.5371 3.32031 52.5391 2.19727 54.3945 0.927734C57.7148-1.2207 60.8887-3.41797 63.7695-5.71289L11.5234-57.959C9.91211-54.4434 8.98438-50.3906 8.98438-45.8984C8.98438-29.3457 22.7539-12.8418 43.8965 0.927734C45.752 2.19727 47.8027 3.32031 49.1699 3.32031Z"/>
  </g>
  <g id="Semibold-S" transform="matrix(1 0 0 1 1994.49 696)">
   <path d="M77.4902 0.732422C78.8086 2.05078 81.0059 2.05078 82.2754 0.732422C83.5938-0.585938 83.6426-2.73438 82.2754-4.05273L11.6699-74.6094C10.3516-75.9766 8.1543-75.9766 6.83594-74.6094C5.56641-73.3398 5.56641-71.0938 6.83594-69.8242ZM88.3301-45.9473C88.3301-60.6934 78.125-70.752 65.625-70.752C57.8125-70.752 52.2461-66.4551 48.7793-60.1562C45.3613-66.4551 39.7461-70.752 31.9336-70.752C29.248-70.752 26.6602-70.3125 24.2676-69.3848L75.7324-17.8711C83.7402-26.8555 88.3301-36.377 88.3301-45.9473ZM48.7793 2.73438C49.9512 2.73438 51.709 1.80664 53.2227 0.78125C56.7383-1.46484 60.0586-3.80859 63.1348-6.20117L11.7188-57.666C10.1562-54.248 9.22852-50.293 9.22852-45.9473C9.22852-29.3945 22.9004-13.0371 44.3359 0.78125C45.8496 1.80664 47.6074 2.73438 48.7793 2.73438Z"/>
  </g>
  <g id="Medium-S" transform="matrix(1 0 0 1 1698.07 696)">
   <path d="M76.8555 0.390625C78.1738 1.70898 80.3711 1.70898 81.6406 0.390625C82.9102-0.927734 82.959-3.07617 81.6406-4.39453L11.6699-74.3164C10.3516-75.6348 8.1543-75.6348 6.83594-74.3164C5.56641-73.0469 5.56641-70.8496 6.83594-69.5312ZM87.5488-45.9961C87.5488-60.3516 77.6855-70.2637 65.332-70.2637C57.5684-70.2637 52.002-66.0156 48.4863-59.668C45.0195-65.9668 39.4043-70.2637 31.6406-70.2637C29.0039-70.2637 26.5137-69.8242 24.1699-68.9453L75-18.0176C83.0078-27.002 87.5488-36.4258 87.5488-45.9961ZM48.4863 2.29492C49.5117 2.29492 51.0742 1.51367 52.3438 0.683594C56.0059-1.66016 59.4727-4.10156 62.6953-6.5918L11.8164-57.4219C10.3027-54.1016 9.42383-50.2441 9.42383-45.9961C9.42383-29.4922 22.998-13.1348 44.6777 0.683594C45.8984 1.51367 47.4609 2.29492 48.4863 2.29492Z"/>
  </g>
  <g id="Regular-S" transform="matrix(1 0 0 1 1401.72 696)">
   <path d="M76.0254-0.0976562C77.3438 1.2207 79.4922 1.2207 80.7617-0.0976562C82.0312-1.41602 82.0801-3.51562 80.7617-4.83398L11.6211-73.9258C10.3027-75.2441 8.1543-75.2441 6.83594-73.9258C5.56641-72.6562 5.56641-70.459 6.83594-69.1895ZM86.5723-46.0938C86.5723-59.8633 77.0996-69.6289 64.9414-69.6289C57.2754-69.6289 51.709-65.4297 48.1445-59.082C44.5801-65.3809 38.9648-69.6289 31.2988-69.6289C28.7598-69.6289 26.3184-69.2383 24.0723-68.4082L74.0723-18.2129C82.0801-27.1973 86.5723-36.5723 86.5723-46.0938ZM48.1445 1.70898C48.9746 1.70898 50.2441 1.12305 51.1719 0.537109C55.0293-1.9043 58.6914-4.49219 62.0605-7.08008L12.0117-57.1289C10.5469-53.9062 9.66797-50.1953 9.66797-46.0938C9.66797-29.541 23.1934-13.3301 45.0684 0.537109C45.9961 1.12305 47.2656 1.70898 48.1445 1.70898Z"/>
  </g>
  <g id="Light-S" transform="matrix(1 0 0 1 1106.26 696)">
   <path d="M73.9746-1.75781C75-0.732422 76.6602-0.732422 77.6855-1.75781C78.6621-2.7832 78.6621-4.44336 77.6855-5.41992L10.498-72.6074C9.47266-73.584 7.8125-73.6328 6.78711-72.6074C5.76172-71.582 5.76172-69.873 6.78711-68.8965ZM84.5215-46.0938C84.5215-59.375 75.3418-68.8477 63.4277-68.8477C56.1035-68.8477 50.2441-64.7461 46.875-58.4473C43.5547-64.6973 37.6465-68.8477 30.3223-68.8477C27.3926-68.8477 24.6094-68.2617 22.168-67.1387L71.1426-18.0664C79.5898-27.0508 84.5215-36.5234 84.5215-46.0938ZM46.875 0.488281C47.6074 0.488281 48.6816 0.0488281 49.4141-0.439453C53.5156-3.07617 57.373-5.81055 60.8398-8.59375L11.9141-57.5195C10.2539-54.248 9.22852-50.3906 9.22852-46.0938C9.22852-29.9805 23.0469-14.1113 44.3359-0.439453C45.0684 0.0488281 46.1426 0.488281 46.875 0.488281Z"/>
  </g>
  <g id="Thin-S" transform="matrix(1 0 0 1 811.183 696)">
   <path d="M71.2891-3.95508C71.9238-3.32031 72.9492-3.32031 73.584-3.95508C74.2188-4.58984 74.2188-5.61523 73.584-6.25L8.98438-70.8008C8.39844-71.3867 7.37305-71.4844 6.68945-70.8008C6.05469-70.166 6.05469-69.1406 6.68945-68.5059ZM81.7871-46.0938C81.7871-58.7402 73.0957-67.7734 61.4746-67.7734C54.6387-67.7734 48.3398-63.7695 45.2148-57.6172C42.1387-63.7695 35.8398-67.7734 28.9551-67.7734C25.5859-67.7734 22.4121-66.9922 19.6777-65.4785L67.2852-17.8223C76.3184-26.9043 81.7871-36.4258 81.7871-46.0938ZM45.2148-1.07422C45.8008-1.07422 46.582-1.36719 47.168-1.75781C51.4648-4.63867 55.5664-7.56836 59.2773-10.5469L11.8164-58.0078C9.81445-54.6875 8.69141-50.6348 8.69141-46.0938C8.69141-30.4688 22.8516-15.1855 43.3105-1.75781C43.8965-1.36719 44.6289-1.07422 45.2148-1.07422Z"/>
  </g>
  <g id="Ultralight-S" transform="matrix(1 0 0 1 515.326 696)">
   <path d="M69.873-5.07812C70.3125-4.63867 71.0449-4.63867 71.4844-5.07812C71.9727-5.56641 71.9238-6.20117 71.4844-6.64062L8.25195-69.873C7.86133-70.2637 7.12891-70.3613 6.64062-69.873C6.20117-69.4336 6.20117-68.75 6.64062-68.3105ZM80.4199-46.0938C80.4199-58.3984 71.9238-67.2363 60.498-67.2363C53.8574-67.2363 47.3633-63.2812 44.3848-57.1777C41.4062-63.2812 34.9121-67.2363 28.2715-67.2363C24.6094-67.2363 21.2402-66.3086 18.3594-64.6484L65.2832-17.7246C74.6094-26.8066 80.4199-36.377 80.4199-46.0938ZM44.3848-1.85547C44.873-1.85547 45.5078-2.14844 45.9961-2.44141C50.4395-5.41992 54.6387-8.49609 58.4961-11.5723L11.7676-58.3008C9.61914-54.9316 8.34961-50.7324 8.34961-46.0938C8.34961-30.7617 22.7539-15.7227 42.7734-2.44141C43.2617-2.14844 43.8965-1.85547 44.3848-1.85547Z"/>
  </g>
 </g>
</svg>
